<svg width="59" height="47" fill="none" xmlns="http://www.w3.org/2000/svg"><path d="M4.48764 39.2777c.22988.2856.35234.6434.34592 1.0106.01173.2395-.03036.4786-.12314.6996-.09279.221-.2339.4182-.41288.577-.44659.3387-.99985.5042-1.55821.4662H0v-6.4049h2.68323c.52966-.0354 1.0551.115 1.48654.4255.17328.1456.31049.3297.40081.5376.09032.208.13127.4342.11963.6608.01574.3533-.09478.7007-.31164.9794-.2082.2544-.49592.4309-.81651.5006.36342.0666.69146.2606.92558.5476zm-3.21303-.9669h1.14685c.26064.0194.51951-.0562.72924-.2128.08611-.0783.1531-.1755.19579-.284.04269-.1085.05994-.2255.0504-.3418.0081-.1158-.00951-.232-.05154-.3403-.04203-.1082-.10745-.2057-.19154-.2854-.216-.1611-.48291-.2378-.75105-.2159H1.27461v1.6802zm1.98828 2.4562c.09204-.0802.1644-.1806.21143-.2935.04702-.1129.06746-.2352.0597-.3573.00702-.1235-.01435-.247-.06244-.361-.04809-.1139-.12163-.2152-.21492-.2961-.22438-.167-.50034-.249-.77911-.2315H1.27461v1.7616h1.21852c.27427.0159.54576-.0625.76976-.2222zM9.97245 42.0312L8.47968 39.528h-.56095v2.5032H6.63477v-6.405h2.4308c.61272-.0429 1.21843.1519 1.69223.5444.3398.3477.5447.8057.5779 1.2916.0331.486-.1077.9678-.3972 1.3587-.2999.3449-.7095.5749-1.15927.6508l1.58937 2.5595H9.97245zM7.91873 38.655h1.05023c.72924 0 1.09384-.3233 1.09384-.9699.0075-.1321-.0125-.2643-.0587-.3881-.0461-.1239-.11738-.2368-.20929-.3316-.23045-.1924-.52724-.2858-.82585-.2597h-1.0627l.01247 1.9493zM16.9908 40.7421h-2.5586l-.4519 1.2891H12.634l2.3498-6.333h1.4554l2.3404 6.333h-1.3463l-.4425-1.2891zm-.3428-.97l-.9349-2.7034-.935 2.7034h1.8699zM25.7759 42.0312h-1.2746l-2.8577-4.3555v4.3555h-1.2715v-6.405h1.2715l2.8577 4.3806v-4.3806h1.2746v6.405zM33.0497 40.4981c-.2635.4836-.6651.8769-1.1531 1.1295-.5548.2814-1.1705.4201-1.7919.4037h-2.2688v-6.405h2.2688c.6203-.0163 1.2352.119 1.7919.3943.4879.2468.8899.6363 1.1531 1.117.2624.5209.3991 1.0965.3991 1.6802 0 .5838-.1367 1.1594-.3991 1.6803zm-1.4585-.1533c.3638-.4255.5638-.9678.5638-1.5285 0-.5608-.2-1.103-.5638-1.5285-.4397-.3854-1.0131-.5811-1.5956-.5445h-.885v4.1459h.885c.5825.0366 1.1559-.159 1.5956-.5444zM17.7886 0s16.4515 6.236 16.1025 15.2599v15.263s-16.4391-6.2391-16.0963-15.263L17.7886 0zM48.5476 26.9497c3.107-2.1468 6.7009-3.4765 10.4525-3.8673v-4.778c-4.3227 1.6728-7.9897 4.7058-10.4525 8.6453z" fill="#AFB1B8"/><path d="M46.6809 28.3889c2.543-5.1412 6.9517-9.1085 12.3192-11.0859V3.53564S35.5708 12.4187 36.0663 25.2693v21.7306s1.044-.3974 2.6864-1.1421c0-.6946 0-1.3955.0748-2.0995.4849-5.9658 3.3097-11.4942 7.8534-15.3694z" fill="#AFB1B8"/><path d="M44.4525 36.4616c.1231-1.5071.3977-2.9978.8196-4.4494-2.8292 3.3466-4.5425 7.4994-4.899 11.8744-.0343.413-.053.826-.0623 1.2516 1.3307-.6415 2.8796-1.4425 4.5063-2.3843-.4151-2.0699-.5379-4.1881-.3646-6.2923zM45.3843 36.5398c-.1559 1.9038-.0585 3.8199.2898 5.6979 6.4012-3.8455 13.5939-9.7874 13.3165-16.9684v-.6257c-4.5734.5137-8.8522 2.521-12.179 5.7134-.7789 1.9784-1.2599 4.0622-1.4273 6.1828z" fill="#AFB1B8"/></svg>