<svg fill="none" xmlns="http://www.w3.org/2000/svg"><path d="M16.9769 2.93452h.1366c.253 0 .5262.02543.7969.04832 1.1926.08411 2.3769.26267 3.5416.53401V.653528c-1.1993-.3009-2.4224-.495752-3.6555-.5823265C17.3285.0356008 16.8302.0127146 16.3192 0h-.4275c-2.4749.00930695-4.9391.327052-7.33625.945963C5.82521 1.62687 3.20457 2.69275.771484 4.11189V32.5086c2.342726-1.2729 4.835556-2.2443 7.419686-2.8913 2.04033-.5206 4.12623-.8408 6.22813-.9561h.0835c.3517-.0178.7033-.028 1.065-.0306v-2.909c-2.7312.0351-5.4486.3962-8.09507 1.0756-.97901.2543-1.92512.5289-2.81306.8341l-1.01189.3433V5.83344l.43258-.20852C7.38159 4.05951 10.9521 3.14863 14.5964 2.94215c.0303-.00221.0608-.00221.0911 0 .4022-.02034.807-.03052 1.2042-.03052h.4553c.21.00509.4199.01018.6299.02289z" fill="#AFB1B8"/><path d="M24.1108 5.93259c-.6653 0-1.3231-.02289-1.958-.07121-.7589-.05594-1.5381-.14748-2.2768-.27209-.4503-.07628-.893-.16783-1.323-.267V33.3935c1.8207.4508 3.6903.6712 5.5654.6561 2.4747-.0101 4.9387-.3269 7.3362-.9435 2.7307-.6818 5.3521-1.7476 7.7865-3.1659V2.04956c-2.3425 1.27222-4.8343 2.2444-7.4172 2.89383-2.5208.64744-5.1114.97968-7.7131.9892zm11.2244.48569l1.0119-.34075V28.2263l-.4326.2085c-1.6593.7895-3.3922 1.4121-5.1733 1.8589-2.1631.5596-4.3868.8475-6.6203.8569-.6678 0-1.3306-.0279-1.9732-.0839l-.6931-.061V8.22883l.807.05341c.5869.03814 1.194.05594 1.8542.05594 2.8356-.01008 5.6591-.37222 8.4063-1.0782.9436-.2492 1.8821-.52892 2.8131-.8417zM2.73726 42.2123c-.14548-.1509-.32085-.2694-.51478-.3478-.19392-.0784-.40206-.115-.61095-.1074-.22261-.003-.4436.0385-.650141.122-.189366.0755-.3615.1888-.505945.3332-.142871.1448-.25403.318-.326334.5085-.0793087.1997-.1188455.4131-.1163674.6281v3.7941c-.0090477.2673.0419676.5333.1492534.7781.089559.1944.218851.3677.379459.5086.15162.1276.329645.2197.521125.2695.18448.0519.3751.0784.56666.0789.21129.0021.42041-.0431.61219-.1323.18964-.0829.36146-.2021.50594-.3509.14089-.1474.25327-.3199.3314-.5086.08108-.1913.1224-.3972.12143-.6052v-.4247h-.99166v.3383c.00295.1154-.01682.2304-.05818.3382-.03229.0807-.08147.1536-.14419.2136-.06143.0496-.13189.0867-.20744.1093-.06697.0223-.13691.0343-.20744.0356-.08854.0103-.17821-.0031-.25995-.0388-.08173-.0357-.15263-.0925-.20552-.1646-.09348-.1525-.139303-.3297-.131544-.5086v-3.5372c-.006152-.1961.035534-.3908.121424-.5671.05148-.08.12432-.144.2102-.1844.08588-.0405.18135-.0559.27551-.0444.08548-.0031.17041.0148.24752.052.0771.0372.14408.0926.19518.1616.11097.1457.16899.3251.16443.5086v.328h.98154V43.41c.00199-.227-.03923-.4523-.12143-.6637-.07326-.1988-.18601-.3805-.33139-.534zM8.62892 42.1692c-.31621-.267-.7153-.4145-1.12826-.417-.20198.0009-.40228.037-.59196.1068-.19257.069-.37029.1743-.52365.3102-.16429.1477-.29537.3289-.38452.5315-.0999.2318-.14907.4824-.14419.7349v3.6389c-.00684.256.04239.5104.14419.7451.08975.1957.22099.3693.38452.5086.1516.1407.32963.2497.52365.3204.18968.0698.38998.1059.59196.1068.20203-.0004.40241-.0366.59196-.1068.19733-.0717.37933-.1805.5363-.3204.15818-.142.28562-.3151.3744-.5086.1018-.2347.15103-.4891.14419-.7451v-3.6389c.00488-.2525-.04429-.5031-.14419-.7349-.08827-.2005-.21557-.3812-.3744-.5315zm-.46294 4.9053c.00836.097-.00503.1946-.03918.2857-.03415.0911-.08819.1734-.15814.2407-.13098.1098-.29615.17-.46673.17-.17058 0-.33576-.0602-.46674-.17-.06995-.0673-.12399-.1496-.15814-.2407-.03415-.0911-.04753-.1887-.03918-.2857v-3.6389c-.00835-.097.00503-.1946.03918-.2857.03415-.0911.08819-.1734.15814-.2407.13098-.1098.29616-.17.46674-.17s.33575.0602.46673.17c.06995.0673.12399.1496.15814.2407.03415.0911.04754.1887.03918.2857v3.6389zM16.3673 48.6993v-6.8888h-.9537l-1.2522 3.6466h-.0177l-1.2624-3.6466h-.9436v6.8888h.9841v-4.1907h.0177l.9638 2.9625h.4908l.9714-2.9625h.0177v4.1907h.9841zM21.9579 42.2938c-.1515-.17-.3428-.2994-.5565-.3764-.2303-.0749-.4714-.111-.7134-.1068h-1.4622v6.8888h.9816V46.009h.5059c.3063.0139.611-.0508.8854-.1882.2232-.1239.4092-.3057.5388-.5264.1136-.1832.1901-.3871.2252-.6001.0386-.2592.0564-.5211.0531-.7832.0095-.3308-.0228-.6615-.0961-.9841-.0655-.2384-.1899-.4562-.3618-.6332zm-.5059 2.1004c-.0043.1248-.0353.2471-.0911.3586-.0561.1059-.1448.1907-.253.2416-.1454.065-.304.0946-.4629.0864h-.4478v-2.342h.506c.1523-.0075.3042.0222.4427.0865.1015.0582.1821.1472.2302.2542.0536.1211.0829.2516.086.384v.4578c0 .1602.0101.3254 0 .4729h-.0101zM26.6077 41.8105h-.8045l-1.5178 6.8888h.9815l.2884-1.48h1.3382l.2884 1.48h.9816l-1.5558-6.8888zm-.9057 4.4705l.4832-2.4972h.0177l.4807 2.4972h-.9816zM32.9496 45.9606h-.0177l-1.4825-4.1501h-.9435v6.8888h.9815v-4.1424h.0202l1.5002 4.1424h.9233v-6.8888h-.9815v4.1501zM38.9476 41.8105l-.7893 2.7388h-.0202l-.7893-2.7388h-1.0397l1.3483 3.9772v2.9116h.9816v-2.9116l1.3483-3.9772h-1.0397zM0 50.6447h.473058v1.3273h.321275v-1.3273h.470527v-.2721H0v.2721zM3.97672 50.3726l-.61979 1.5994h.34152l.13154-.3636h.63749l.13661.3636h.3491l-.63496-1.5994h-.34151zm-.0506.9663l.21756-.5925.21755.5925h-.43511zM7.90793 51.3821h.36934v.206c-.10786.0865-.24151.1339-.37946.1348-.06451.0036-.12895-.0084-.18793-.0349-.05897-.0266-.11077-.0669-.15105-.1177-.08481-.1218-.12666-.2686-.1189-.417 0-.356.15431-.534.46041-.534.08057-.0081.16134.0132.2277.0598.06635.0466.1139.1156.13405.1944l.31622-.061c-.0683-.3128-.29345-.4704-.67797-.4704-.20566-.0055-.40564.0682-.55907.206-.08058.0795-.14293.1758-.18269.2821-.03976.1063-.05597.22-.04751.3332-.00932.2189.06386.4332.20491.6002.07836.0808.17322.1435.27803.1839.10482.0404.21709.0574.3291.05.25027.007.49341-.0842.67797-.2543v-.6306h-.69315v.2695zM11.9227 50.3726h-.3238v1.5994h1.1206V51.7h-.7968v-1.3274zM15.3175 50.3726h-.3238v1.5994h.3238v-1.5994zM18.6364 51.4406l-.6552-1.068h-.3137v1.5994h.301v-1.0451l.6426 1.0451h.3212v-1.5994h-.2959v1.068zM21.6368 51.2677h.7969v-.2721h-.7969v-.3509h.8576v-.2721H21.313v1.5994h1.2143V51.7h-.8905v-.4323zM28.9121 51.0032h-.6299v-.6306h-.3213v1.5994h.3213v-.6992h.6299v.6992h.3213v-1.5994h-.3213v.6306zM31.9302 51.2677h.7994v-.2721h-.7994v-.3509h.8601v-.2721h-1.1814v1.5994h1.2117V51.7h-.8904v-.4323zM36.0233 51.2676c.2782-.0432.4199-.1907.4199-.445.0081-.068-.0022-.137-.0298-.1996-.0276-.0627-.0715-.1167-.1271-.1564-.1448-.0728-.3064-.1052-.468-.0941h-.6779v1.5995h.3213v-.6688h.0632c.0685-.0042.137.008.1998.0356.047.029.0861.0691.1139.117l.3491.5086h.3845l-.1948-.3128c-.0861-.1544-.2075-.286-.3541-.384zm-.3239-.2212h-.2377v-.4018h.2529c.1102-.0089.2211.004.3264.0381.0234.0207.0418.0464.054.0752.0122.0288.0177.06.0163.0913-.0015.0312-.0099.0618-.0247.0893-.0148.0275-.0356.0514-.0608.0697-.1056.0324-.2162.0453-.3264.0382zM39.1094 51.2677h.7969v-.2721h-.7969v-.3509h.8602v-.2721h-1.184v1.5994h1.2143V51.7h-.8905v-.4323z" fill="#AFB1B8"/></svg>