<svg width="89" height="45" fill="none" xmlns="http://www.w3.org/2000/svg"><path d="M44.7404 20.6885c-.418-.5912-.6179-1.2898-.5705-1.9931v-2.8898c0-.8858.1891-1.559.5673-2.0195.3782-.4606 1.0277-.6899 1.9486-.6879.8654 0 1.4796.1959 1.8429.5879.3962.5001.5889 1.1117.5448 1.7286v.679h-1.548v-.6879c.0055-.2251-.0095-.4503-.0448-.6732-.0223-.1523-.1003-.2933-.2212-.3998-.1589-.1147-.3592-.1704-.5608-.1558-.2121-.0145-.4225.0442-.5898.1647-.1348.1179-.2247.2725-.2564.4409-.0444.2359-.0647.475-.0609.7144v3.5071c-.0244.3383.0439.6768.1988.9848.0769.1041.1839.1867.3089.2386s.2632.071.3994.0553c.1983.015.395-.042.548-.1587.1261-.1148.2073-.2647.2308-.4263.0361-.2326.0522-.4676.048-.7026v-.7114h1.548v.6497c.0435.643-.1446 1.2813-.5352 1.8167-.3558.4292-.9615.6438-1.8525.6438-.8909 0-1.564-.2293-1.9454-.7055zM51.1856 20.7179c-.391-.4498-.5865-1.1053-.5865-1.9725v-3.0397c0-.8584.1955-1.5081.5865-1.949.391-.441 1.0448-.6605 1.9614-.6585.9102 0 1.5608.2195 1.9518.6585.391.4409.5897 1.0906.5897 1.949v3.0397c0 .8584-.1987 1.5169-.5961 1.9696-.3974.4527-1.0448.679-1.9454.679-.9006 0-1.5672-.2293-1.9614-.6761zm2.6825-.729c.14-.2818.2038-.5904.1859-.8996v-3.7217c.018-.3032-.0447-.6059-.1827-.8819-.0785-.1064-.1881-.1903-.3162-.2423-.128-.052-.2695-.0699-.4081-.0517-.1391-.0177-.2808.0004-.4093.0523-.1284.0519-.2386.1356-.3182.2417-.1409.2752-.2048.5783-.1859.8819v3.7393c-.0195.3093.0444.6183.1859.8996.0902.0948.2016.1708.3265.2229.1249.0521.2606.079.3978.079s.2729-.0269.3978-.079c.1249-.0521.2363-.1281.3265-.2229v-.0176zM57.5505 13.1868h1.6666l1.2531 5.6082 1.282-5.6082h1.6217l.1635 8.0949h-1.1987l-.1282-5.6259-1.2371 5.6259h-.9615l-1.282-5.6465-.1185 5.6465h-1.2115l.1506-8.0949zM65.4061 13.1868h2.596c1.4956 0 2.2434.7662 2.2434 2.2985 0 1.4678-.7874 2.2006-2.362 2.1987h-.8846v3.5977h-1.6024l.0096-8.0949zm2.2178 3.4596c.1583.0184.3191.0051.4713-.0391.1522-.0441.2921-.118.41-.2166.1838-.2734.2648-.5945.2308-.9142.0084-.2469-.0175-.4938-.0769-.7348-.0229-.0805-.063-.156-.118-.2221-.0551-.0661-.1239-.1215-.2025-.163-.2225-.0978-.4684-.1423-.7147-.1293h-.6218v2.4191h.6218zM72.5559 13.1868h1.7211l1.7658 8.0949h-1.4934L74.2 19.4153h-1.5351l-.359 1.8664H70.79l1.7659-8.0949zm1.4711 5.2908l-.5993-3.3979-.5994 3.3979h1.1987zM77.469 13.1868h1.1218l2.1473 4.6177v-4.6177h1.33v8.0949h-1.0672l-2.1602-4.8205v4.8205h-1.3749l.0032-8.0949zM85.1836 18.1954l-1.7852-4.9969h1.5031l1.0897 3.2098 1.0224-3.2098h1.471l-1.7627 4.9969v3.0863h-1.5383v-3.0863zM47.2146 24.8213v.4233H45.907v3.2893h-.5481v-3.2893h-1.314v-.4233h3.1697zM51.3141 28.5342h-.4231c-.0429.0024-.0853-.0102-.1186-.0353-.032-.0215-.0565-.0512-.0705-.0852l-.3781-.8819h-1.8141l-.3781.8819c-.0108.0368-.0305.071-.0577.0999-.0336.0246-.0757.0372-.1186.0353h-.4231l1.6025-3.7127h.5577l1.6217 3.698zm-2.6537-1.3787h1.5127l-.641-1.5109c-.0473-.1143-.0869-.2311-.1186-.3498-.0224.0705-.0416.1381-.0609.1969l-.0576.1558-.6346 1.508zM54.0766 28.1694c.1004.0049.2009.0049.3013 0 .0866-.0082.1724-.0229.2564-.0441.0785-.0176.1556-.0402.2307-.0676.0706-.0264.1411-.0588.2148-.0911v-.8349h-.641c-.0159.0008-.0317-.0014-.0466-.0064-.0149-.0051-.0285-.0129-.0399-.023-.0106-.0084-.0189-.0188-.0244-.0305-.0056-.0117-.0082-.0244-.0077-.0371v-.2852h1.2435v1.4229c-.1015.0666-.2087.1256-.3205.1764-.1142.0517-.2333.094-.3557.1264-.1311.0353-.2651.0609-.4006.0764-.1554.0158-.3116.0237-.468.0235-.2764.0022-.5506-.0448-.8076-.1381-.2399-.0885-.4579-.2205-.641-.3881-.1784-.1693-.3189-.369-.4134-.5879-.101-.2461-.151-.5073-.1474-.7703-.0034-.2645.0455-.5275.1442-.7761.0922-.22.2329-.4202.4134-.5879.1829-.167.401-.2981.641-.3851.2744-.0947.5657-.1416.8589-.1382.1492-.0002.2982.0106.4455.0323.1303.0195.2581.051.3814.0941.1121.0386.2195.0879.3205.147.0982.058.1914.1229.2788.194l-.1538.2293c-.0121.021-.03.0386-.052.051-.022.0124-.0472.0192-.073.0196-.0355-.0011-.0699-.0113-.0994-.0294-.048-.0235-.0993-.0529-.157-.0882-.0682-.0392-.14-.0727-.2147-.1-.0956-.0351-.1942-.0626-.2949-.0823-.1342-.0227-.2705-.0335-.407-.0323-.2115-.0022-.4214.0328-.6186.1029-.1783.0656-.339.1659-.4711.294-.1328.1334-.2343.2905-.2981.4615-.1431.4021-.1431.8355 0 1.2376.0702.1746.1794.3339.3205.4675.1315.1273.291.2275.468.2939.2037.0642.4198.0892.6345.0735zM59.1851 28.1106h1.75v.4233h-2.2852v-3.7126h.5481l-.0129 3.2893zM62.7556 28.5339h-.5481v-3.7126h.5481v3.7126zM64.7939 24.8387c.0326.0171.0609.0401.0833.0676L67.22 27.705c-.0032-.0441-.0032-.0883 0-.1323V24.8064h.4775v3.7276h-.2756c-.0408.003-.0818-.0041-.1186-.0206-.0333-.0185-.0626-.0424-.0865-.0706l-2.3396-2.7956v2.8868h-.4583v-3.7129h.2853c.0309.0001.0615.0061.0897.0176zM71.7323 24.8213v.4086h-1.9422v1.2258h1.5736v.3939h-1.5736v1.2669h1.9422v.4086h-2.5062v-3.7038h2.5062zM14.3035 1.89306l24.335 6.33766V30.439l-24.335-6.3348V1.89306zM12.7427 0v25.1831L40.196 32.335V7.15485L12.7427 0z" fill="#AFB1B8"/><path d="M27.4565 44.0251L0 36.8674V11.6873l27.4565 7.1548v25.183z" fill="#AFB1B8"/><path d="M13.1978 1.60791l24.0177 6.25823-10.2141 9.37116-24.02083-6.2612L13.1978 1.60791zM12.7427 0L0 11.6875l27.4565 7.1548L40.196 7.15478 12.7427 0zM29.0015 42.6084L40.1962 32.338l-11.1947-2.9188v13.1892z" fill="#AFB1B8"/></svg>