<svg width="16" height="12" fill="none" xmlns="http://www.w3.org/2000/svg"><path d="M14.5 0H1.50001C.672854 0 0 .628107 0 1.40026v8.40147C0 10.5739.672854 11.202 1.50001 11.202H14.5c.8271 0 1.5-.6281 1.5-1.40027V1.40026C16 .628107 15.3271 0 14.5 0zm0 .933493c.0679 0 .1325.013157.1916.036135L8 6.38361 1.30833.969628c.05909-.022947.12371-.036135.19165-.036135H14.5zm0 9.335007H1.50001c-.27587 0-.500014-.2092-.500014-.46681V1.95587L7.67236 7.35402c.09425.07611.21094.11396.32764.11396s.23339-.03782.32764-.11396L15 1.95587v7.84586c0 .25757-.2241.46677-.5.46677z" fill="#757575"/></svg>