<svg width="10" height="15" fill="none" xmlns="http://www.w3.org/2000/svg"><path d="M8.5 0h-7C.6728 0 0 .6085 0 1.3566v11.7575c0 .7481.6728 1.3567 1.5 1.3567h7c.8271 0 1.5-.6086 1.5-1.3567V1.3566C10 .6086 9.3271 0 8.5 0zm-7 .9044h7c.2759 0 .5.2027.5.4522v9.4965H1V1.3566c0-.2495.2241-.4522.5-.4522zm7 12.6619h-7c-.2759 0-.5-.2027-.5-.4522v-1.3566h8v1.3566c0 .2495-.2241.4522-.5.4522z" fill="#757575"/><path d="M2.3535 12.3422c.1953.1766.1953.4629 0 .6395-.1952.1766-.5118.1766-.707 0-.1953-.1766-.1953-.4629 0-.6395.1952-.1766.5118-.1766.707 0z" fill="#757575"/></svg>