<svg aria-hidden="true" style="position:absolute;width:0;height:0" xmlns="http://www.w3.org/2000/svg" overflow="hidden"><defs><symbol id="icon-form-check" viewBox="0 0 32 32"><path fill="var(--color1, #fff)" stroke="var(--color1, #fff)" stroke-width=".4267" d="M6.308 16.537l-.147-.14-2.205 2.088 7.767 7.41 16.318-15.567-2.19-2.089-14.128 13.465-5.416-5.167z"/></symbol><symbol id="icon-form-close" viewBox="0 0 32 32"><path d="M26.667 7.303l-1.97-1.97-7.808 7.808-7.808-7.808-1.97 1.97 7.808 7.808-7.808 7.808 1.97 1.97 7.808-7.808 7.808 7.808 1.97-1.97-7.808-7.808 7.808-7.808z"/></symbol><symbol id="icon-form-email" viewBox="0 0 32 32"><path d="M26.667 5.333H5.334c-1.467 0-2.653 1.2-2.653 2.667l-.013 16c0 1.467 1.2 2.667 2.667 2.667h21.333c1.467 0 2.667-1.2 2.667-2.667V8c0-1.467-1.2-2.667-2.667-2.667zM26.133 11l-9.427 5.893c-.427.267-.987.267-1.413 0L5.866 11c-.333-.213-.533-.573-.533-.96 0-.893.973-1.427 1.733-.96l8.933 5.587 8.933-5.587c.76-.467 1.733.067 1.733.96 0 .387-.2.747-.533.96z"/></symbol><symbol id="icon-form-person" viewBox="0 0 32 32"><path d="M16 16c2.947 0 5.333-2.387 5.333-5.333S18.946 5.334 16 5.334c-2.947 0-5.333 2.387-5.333 5.333S13.054 16 16 16zm0 2.667c-3.56 0-10.667 1.787-10.667 5.333v1.333c0 .733.6 1.333 1.333 1.333h18.667c.733 0 1.333-.6 1.333-1.333V24c0-3.547-7.107-5.333-10.667-5.333z"/></symbol><symbol id="icon-form-phone" viewBox="0 0 32 32"><path d="M24.881 19.773l-3.268-.373c-.785-.09-1.557.18-2.11.733L17.136 22.5c-3.641-1.853-6.626-4.825-8.478-8.478l2.38-2.38c.553-.553.823-1.325.733-2.11l-.373-3.242c-.154-1.299-1.248-2.277-2.56-2.277H6.612c-1.454 0-2.663 1.209-2.573 2.663.682 10.987 9.469 19.761 20.443 20.443 1.454.09 2.663-1.119 2.663-2.573V22.32c.013-1.3-.965-2.393-2.264-2.547z"/></symbol></defs></svg>