<svg aria-hidden="true" style="position:absolute;width:0;height:0" xmlns="http://www.w3.org/2000/svg" overflow="hidden"><defs><symbol id="icon-client1" viewBox="0 0 64 32"><path fill="var(--color1, #afb1b8)" d="M1.28 0l1.559 1.43h4.349v3.989l1.559 1.43V.001H1.28z"/><path fill="var(--color1, #afb1b8)" d="M0 1.37v6.653h7.253V5.379L2.885 1.372 0 1.37zm5.872 5.679H1.148V2.575h.334v4.171h4.39v.303zM2.089 9.277l.174-.359h.146l-.254.479v.279h-.132v-.279l-.255-.479h.146l.174.359zm.749.222h-.294l-.061.177h-.137l.286-.758h.118l.287.758h-.138l-.062-.177zm-.257-.106h.22l-.11-.315-.11.315zm.776.078c0-.035.01-.067.029-.096s.057-.064.113-.105c-.03-.037-.05-.069-.062-.095s-.017-.051-.017-.076c0-.059.018-.106.054-.141s.085-.052.146-.052c.055 0 .1.016.135.049s.053.072.053.12c0 .032-.008.061-.024.088s-.042.053-.079.079l-.052.037.146.173a.3057.3057 0 00.032-.139h.11c0 .093-.022.17-.066.23l.111.132h-.147l-.043-.051c-.054.041-.119.061-.194.061s-.135-.02-.18-.059c-.045-.04-.067-.092-.067-.156zm.251.114c.043 0 .083-.014.12-.043l-.166-.195-.016.011c-.042.032-.063.068-.063.108 0 .035.011.064.034.085s.053.033.091.033zm-.07-.488c0 .029.018.066.054.11l.058-.04.016-.013a.0922.0922 0 00.032-.073c0-.02-.007-.037-.022-.051s-.034-.021-.057-.021c-.025 0-.044.008-.059.025s-.022.038-.022.063zm1.378.332c-.008.081-.037.144-.09.19s-.121.068-.208.068c-.06 0-.114-.014-.16-.043s-.081-.07-.106-.122-.038-.114-.039-.184v-.071c0-.072.013-.135.038-.189s.062-.097.109-.126c.048-.03.102-.044.165-.044.084 0 .151.023.202.068s.081.11.089.193h-.131c-.006-.055-.022-.094-.048-.118s-.063-.036-.112-.036c-.057 0-.101.021-.132.063s-.046.103-.047.184v.067c0 .082.015.144.044.188s.073.065.129.065c.052 0 .091-.012.117-.035s.043-.062.049-.116h.131zm.723-.112c0 .074-.013.14-.039.196s-.063.099-.11.129c-.048.03-.102.045-.165.045s-.116-.015-.165-.045c-.048-.03-.085-.073-.111-.129s-.039-.12-.04-.192v-.043c0-.074.013-.139.039-.196s.063-.1.111-.13.103-.045.165-.045.116.015.164.045.085.072.111.128.039.12.04.194v.042zm-.131-.04c0-.084-.016-.148-.048-.193s-.077-.067-.135-.067c-.057 0-.102.022-.134.067s-.048.107-.049.189v.044c0 .083.016.148.048.193s.078.068.135.068c.058 0 .103-.022.134-.067s.047-.109.047-.195v-.04z"/></symbol><symbol id="icon-client2" viewBox="0 0 64 32"><path fill="var(--color1, #afb1b8)" d="M3.622.626h.029c.054 0 .112.005.17.01.254.018.507.056.756.114V.139a4.4775 4.4775 0 00-.78-.124C3.697.007 3.591.003 3.482 0h-.091c-.528.002-1.054.07-1.565.202C1.244.347.684.575.165.877v6.058a6.738 6.738 0 011.583-.617c.435-.111.88-.179 1.329-.204h.018c.075-.004.15-.006.227-.007v-.621a7.4 7.4 0 00-1.727.229c-.209.054-.411.113-.6.178l-.216.073V1.243l.092-.044A6.0287 6.0287 0 013.114.627h.019c.086-.004.172-.006.257-.006h.097c.045.001.09.002.134.005z"/><path fill="var(--color1, #afb1b8)" d="M5.144 1.266c-.142 0-.282-.005-.418-.015a5.1988 5.1988 0 01-.486-.058 4.6838 4.6838 0 01-.282-.057v5.989c.388.096.787.143 1.187.14.528-.002 1.054-.07 1.565-.201a6.3518 6.3518 0 001.661-.675V.439c-.5.271-1.031.479-1.582.617-.538.138-1.09.209-1.645.211zm2.394.103l.216-.073v4.725l-.092.044c-.354.168-.724.301-1.104.397-.461.119-.936.181-1.412.183-.142 0-.284-.006-.421-.018l-.148-.013V1.755l.172.011c.125.008.255.012.396.012a7.2798 7.2798 0 001.793-.23c.201-.053.402-.113.6-.18zM.584 9.005c-.031-.032-.068-.057-.11-.074s-.086-.025-.13-.023a.3503.3503 0 00-.139.026c-.04.016-.077.04-.108.071s-.054.068-.07.108a.362.362 0 00-.025.134v.809c-.002.057.009.114.032.166.019.041.047.078.081.108.032.027.07.047.111.057.039.011.08.017.121.017.045 0 .09-.009.131-.028.04-.018.077-.043.108-.075s.054-.068.071-.108a.3377.3377 0 00.026-.129v-.091H.471v.072a.1946.1946 0 01-.012.072.129.129 0 01-.031.046.1238.1238 0 01-.044.023.1628.1628 0 01-.044.008.1073.1073 0 01-.099-.043.1882.1882 0 01-.028-.108v-.755a.2666.2666 0 01.026-.121c.011-.017.027-.031.045-.039s.039-.012.059-.009c.018-.001.036.003.053.011s.031.02.042.034c.024.031.036.069.035.108v.07h.209V9.26c0-.048-.008-.097-.026-.142a.347.347 0 00-.071-.114zm1.257-.009a.379.379 0 00-.241-.089c-.043 0-.086.008-.126.023s-.079.037-.112.066a.3287.3287 0 00-.082.113.3828.3828 0 00-.031.157v.776c-.001.055.009.109.031.159.019.042.047.079.082.108.032.03.07.053.112.068s.083.023.126.023.086-.008.126-.023c.042-.015.081-.039.114-.068s.061-.067.08-.108c.022-.05.032-.104.031-.159v-.776a.3701.3701 0 00-.031-.157.347.347 0 00-.08-.113zm-.099 1.047c.002.021-.001.041-.008.061s-.019.037-.034.051a.1571.1571 0 01-.2 0c-.015-.014-.026-.032-.034-.051s-.01-.04-.008-.061v-.776c-.002-.021.001-.041.008-.061s.019-.037.034-.051a.1571.1571 0 01.2 0c.015.014.026.032.034.051s.01.04.008.061v.776zm1.75.346v-1.47h-.203l-.267.778h-.004l-.269-.778h-.201v1.47h.21v-.894h.004l.206.632h.105l.207-.632h.004v.894h.21zm1.192-1.366a.2854.2854 0 00-.119-.08.4637.4637 0 00-.152-.023h-.312v1.47h.209v-.574h.108c.065.003.13-.011.189-.04a.3017.3017 0 00.115-.112.349.349 0 00.048-.128c.008-.055.012-.111.011-.167a.8232.8232 0 00-.021-.21.3097.3097 0 00-.077-.135zm-.108.448a.1937.1937 0 01-.019.076.1182.1182 0 01-.054.052.2104.2104 0 01-.099.018h-.096v-.5h.108c.032-.002.065.005.094.018a.112.112 0 01.049.054c.011.026.018.054.018.082v.098c0 .034.002.069 0 .101h-.002zm1.1-.551h-.172l-.324 1.47h.209l.062-.316h.285l.062.316h.209l-.332-1.47zm-.193.953l.103-.533h.004l.103.533h-.209zm1.546-.068h-.004l-.316-.885h-.201v1.47h.209v-.884h.004l.32.884h.197V8.92h-.209v.885zm1.28-.885l-.168.584h-.004l-.168-.584h-.222l.288.848v.621h.209v-.621l.288-.848H8.31zM0 10.804h.101v.283H.17v-.283h.1v-.058H0v.058zm.848-.058l-.132.341h.073l.028-.078h.136l.029.078h.074l-.135-.341H.848zm-.01.206l.046-.126.046.126H.837zm.849.009h.079v.044a.1336.1336 0 01-.081.029c-.014.001-.028-.002-.04-.007s-.024-.014-.032-.025a.1404.1404 0 01-.025-.089c0-.076.033-.114.098-.114a.0745.0745 0 01.078.054l.067-.013c-.015-.067-.063-.1-.145-.1a.1722.1722 0 00-.119.044c-.017.017-.03.037-.039.06s-.012.047-.01.071c-.002.047.014.092.044.128.017.017.037.031.059.039s.046.012.07.011c.053.002.105-.018.145-.054v-.135h-.148v.057zm.856-.215h-.069v.341h.239v-.058h-.17v-.283zm.725 0h-.069v.341h.069v-.341zm.708.228l-.14-.228h-.067v.341h.064v-.223l.137.223h.069v-.341h-.063v.228zm.64-.037h.17v-.058h-.17v-.075h.183v-.058h-.252v.341h.259v-.058h-.19v-.092zm1.552-.056h-.134v-.135h-.069v.341h.069v-.149h.134v.149h.069v-.341h-.069v.135zm.644.056h.171v-.058h-.171v-.075h.183v-.058h-.252v.341h.258v-.058h-.19v-.092zm.873 0c.059-.009.09-.041.09-.095.002-.014 0-.029-.006-.043s-.015-.025-.027-.033a.1915.1915 0 00-.1-.02h-.145v.341h.069v-.143h.013c.015-.001.029.002.043.008.01.006.018.015.024.025l.074.108h.082l-.042-.067a.2296.2296 0 00-.076-.082zm-.069-.047h-.051v-.086h.054c.024-.002.047.001.07.008.005.004.009.01.012.016s.004.013.003.019c0 .007-.002.013-.005.019s-.008.011-.013.015a.1844.1844 0 01-.07.008zm.727.047h.17v-.058h-.17v-.075h.184v-.058h-.253v.341h.259v-.058h-.19v-.092z"/></symbol><symbol id="icon-client3" viewBox="0 0 64 32"><path fill="var(--color1, #afb1b8)" d="M1.354 8.638c.003 0 .006.001.009.002s.006.003.008.005l.044.045a.3664.3664 0 01-.123.085.4513.4513 0 01-.175.03.4655.4655 0 01-.165-.028.353.353 0 01-.124-.08.3571.3571 0 01-.08-.124.4335.4335 0 01-.028-.159.3977.3977 0 01.03-.159c.019-.046.048-.088.085-.124s.082-.062.132-.081a.4892.4892 0 01.17-.028c.054-.001.107.008.157.026.043.017.083.042.118.071l-.037.048-.009.009c-.003.003-.01.004-.015.004a.0302.0302 0 01-.016-.005l-.02-.013-.027-.016a.4122.4122 0 00-.037-.016.4071.4071 0 00-.05-.013.356.356 0 00-.065-.005.337.337 0 00-.122.021.2607.2607 0 00-.095.06.2943.2943 0 00-.062.095.338.338 0 00-.022.126.352.352 0 00.022.128c.013.035.034.067.061.095.025.026.056.046.091.059s.074.021.113.02a.502.502 0 00.067-.004.2522.2522 0 00.101-.034.336.336 0 00.043-.031.0323.0323 0 01.021-.008zm1.267-.224a.393.393 0 01-.03.158c-.018.046-.046.087-.083.122s-.081.062-.13.08a.5035.5035 0 01-.334 0c-.049-.018-.093-.046-.129-.081s-.065-.078-.083-.124a.431.431 0 010-.316.3806.3806 0 01.083-.124c.037-.034.081-.06.129-.077a.4914.4914 0 01.334 0c.049.018.093.046.13.081s.064.077.083.122c.02.051.03.104.03.159zm-.115 0a.3458.3458 0 00-.021-.127.2567.2567 0 00-.059-.095.2662.2662 0 00-.093-.06.362.362 0 00-.243 0 .2613.2613 0 00-.093.06.249.249 0 00-.059.095.3915.3915 0 000 .253c.012.035.033.067.059.095.026.026.057.046.093.059.078.027.164.027.243 0a.2589.2589 0 00.093-.059c.026-.028.046-.06.059-.095a.3458.3458 0 00.021-.127zm.98.133l.012.028c.004-.01.008-.019.013-.028s.009-.019.014-.028l.28-.471c.005-.008.01-.013.016-.015a.0852.0852 0 01.023-.003h.083v.765h-.098v-.587a.113.113 0 010-.026l-.282.477c-.004.007-.009.013-.017.017s-.016.006-.024.006H3.49c-.009 0-.017-.002-.024-.006s-.013-.01-.016-.018l-.29-.48v.614h-.095v-.764h.083c.008 0 .016 0 .023.003.007.003.012.008.015.015l.286.471c.006.009.01.018.014.027zm1.055-.038v.287h-.11v-.764h.245c.046-.001.092.005.137.017.036.009.068.025.097.048.024.021.043.046.055.075.013.031.019.064.019.098s-.006.067-.02.098a.1984.1984 0 01-.059.076.2817.2817 0 01-.097.051.421.421 0 01-.132.018l-.133-.002zm0-.082h.133a.301.301 0 00.085-.012.164.164 0 00.061-.033.1342.1342 0 00.037-.051.156.156 0 00.013-.064c.001-.021-.002-.043-.011-.062s-.022-.038-.038-.052a.2269.2269 0 00-.148-.041H4.54v.315zm1.475.37h-.087c-.009 0-.017-.002-.024-.007s-.011-.011-.014-.018l-.075-.185h-.375l-.077.185c-.003.007-.008.013-.014.017s-.016.008-.025.008h-.087l.329-.765h.114l.334.765zm-.543-.284h.309l-.131-.312a.5554.5554 0 01-.025-.072l-.013.04a.3684.3684 0 01-.012.032l-.13.311zm1.017-.478c.007.003.012.008.016.014l.48.577v-.594h.098v.765h-.055c-.008 0-.016-.001-.022-.005s-.013-.008-.018-.014l-.48-.576a.113.113 0 010 .026v.569h-.098v-.765h.058c.007 0 .014.001.02.004zm1.404.457v.304h-.11v-.304l-.303-.461h.098c.008 0 .017.002.024.007s.011.011.015.017l.19.297c.008.013.014.024.02.035s.01.022.014.032l.014-.033a.237.237 0 01.019-.035l.187-.299c.004-.006.009-.011.014-.016s.015-.008.024-.008h.099l-.304.463zM3.432 6.747c.048.006.096.01.145.014.74-.306 1.367-.806 1.801-1.439s.656-1.369.639-2.118l-.816-.753c.166.797.088 1.621-.224 2.379S4.13 6.252 3.432 6.746z"/><path fill="var(--color1, #afb1b8)" d="M3.14 6.712l.022.004c.745-.492 1.314-1.179 1.631-1.973s.37-1.657.151-2.478L3.782 1.192c.47.882.659 1.869.546 2.846S3.802 5.942 3.14 6.712zM7.082 4.09c-.197.822-.677 1.564-1.367 2.115-.202.162-.419.306-.65.431.562-.153 1.079-.422 1.51-.788s.766-.819.978-1.323l-.471-.435z"/><path fill="var(--color1, #afb1b8)" d="M6.897 3.968l-.671-.619c-.013.706-.23 1.396-.63 1.999s-.967 1.095-1.642 1.427h.003c.151 0 .301-.008.45-.025.631-.238 1.189-.616 1.624-1.102s.732-1.062.866-1.679zM3.237.74L2.436 0C1.72.255 1.105.704.67 1.288S.001 2.563-.001 3.271c.003.783.288 1.542.811 2.158s1.253 1.053 2.076 1.243c.734-.826 1.164-1.846 1.227-2.913S3.869 1.635 3.236.74zm5.51 3.114c-.003-.929-.404-1.818-1.115-2.475S5.957.352 4.951.35c-.465 0-.926.079-1.359.234l4.902 4.525c.168-.4.254-.825.254-1.254z"/></symbol><symbol id="icon-client4" viewBox="0 0 64 32"><path fill="var(--color1, #afb1b8)" d="M2.724 2.652h-.001c-.497 0-.9.369-.9.825v.001c0 .456.403.825.9.825h.001c.497 0 .9-.369.9-.825v-.001c0-.456-.403-.825-.9-.825zm6.639-.264c-.001-.633-.276-1.24-.764-1.687S7.45.001 6.76 0c-.69.001-1.352.253-1.84.701s-.763 1.054-.764 1.687v3.49s5.207-.532 5.208-3.49v-.001zM0 7.024c.001.44.193.862.532 1.174s.799.487 1.28.488c.48-.001.94-.177 1.279-.488s.531-.733.532-1.173V4.597S0 4.967 0 7.025zm1.812.435c-.094 0-.186-.026-.264-.073s-.139-.116-.175-.195c-.036-.08-.045-.167-.027-.251s.064-.162.13-.223.151-.102.243-.119.187-.008.274.025c.087.033.161.089.213.16s.08.156.08.242c0 .057-.012.114-.036.167s-.059.101-.103.142c-.044.041-.096.073-.154.095s-.119.033-.182.033V7.46zm3.679-.242h-.36v.372h-.188v-.91h.593v.152h-.405v.235h.36v.151zm.902-.062c0 .09-.016.168-.048.236s-.077.12-.136.156c-.059.037-.126.055-.203.055s-.143-.018-.202-.054-.105-.088-.138-.155c-.032-.067-.049-.145-.049-.232v-.045c0-.09.016-.168.048-.236s.078-.121.137-.157c.059-.037.127-.055.202-.055s.143.018.202.055c.059.036.105.089.137.157s.049.146.049.236v.041zm-.19-.042c0-.095-.017-.168-.051-.218s-.083-.074-.146-.074c-.063 0-.111.025-.146.074s-.051.12-.052.215v.044c0 .093.017.165.051.216s.083.077.147.077c.063 0 .111-.025.145-.074s.051-.122.051-.216v-.044zm.798.237c0-.035-.013-.063-.037-.081s-.07-.039-.135-.06c-.065-.021-.116-.042-.154-.063-.103-.056-.155-.131-.155-.226 0-.049.014-.093.041-.131s.068-.069.119-.091c.052-.022.11-.032.175-.032s.123.012.174.036c.051.023.09.056.118.099s.043.092.043.146h-.188c0-.042-.013-.074-.039-.097s-.063-.035-.111-.035c-.046 0-.081.01-.107.029s-.038.045-.038.076c0 .03.015.054.044.074s.074.039.132.056c.107.032.184.072.233.119s.073.107.073.178c0 .079-.03.141-.089.186s-.14.067-.241.067c-.07 0-.134-.013-.191-.038s-.101-.061-.132-.106c-.03-.045-.045-.096-.045-.155h.188c0 .1.06.151.18.151.045 0 .079-.009.104-.027S7 7.381 7 7.349zm1-.519h-.279v.758h-.188v-.758h-.275v-.152H8v.152zm.655.364h-.36v.244h.422v.151h-.61v-.91h.609v.152h-.421v.217h.36v.147zm.51.061h-.149v.333h-.188v-.91h.338c.107 0 .19.024.249.072s.088.116.088.203c0 .062-.014.114-.041.156s-.067.074-.122.099l.197.372v.009h-.201l-.171-.333zm-.15-.152h.151c.047 0 .084-.012.109-.036s.039-.057.039-.099c0-.043-.012-.077-.037-.101s-.061-.037-.112-.037h-.151v.273zm1.137.164v.321h-.188v-.91h.355c.068 0 .128.013.18.037s.092.061.12.107a.295.295 0 01.042.157c0 .089-.031.16-.092.211s-.145.077-.253.077h-.164zm0-.151h.168c.05 0 .087-.012.113-.035s.039-.057.039-.1c0-.045-.013-.081-.039-.108s-.063-.042-.109-.043h-.172v.286zm1.186.078h-.36v.244h.422v.151h-.61v-.91h.609v.152h-.421v.217h.36v.147zm.87-.364h-.279v.758h-.188v-.758h-.275v-.152h.741v.152zm.655.364h-.36v.244h.422v.151h-.61v-.91h.609v.152h-.421v.217h.36v.147zm.509.061h-.149v.333h-.188v-.91h.338c.107 0 .19.024.249.072s.088.116.088.203c0 .062-.014.114-.041.156s-.067.074-.122.099l.197.372v.009h-.201l-.171-.333zm-.149-.152h.151c.047 0 .084-.012.109-.036s.039-.057.039-.099c0-.043-.012-.077-.037-.101s-.061-.037-.112-.037h-.151v.273zm1.102.246c0-.035-.012-.063-.037-.081s-.07-.039-.135-.06c-.065-.021-.116-.042-.154-.063-.103-.056-.155-.131-.155-.226 0-.049.014-.093.041-.131s.068-.069.119-.091c.052-.022.11-.032.175-.032s.123.012.174.036c.051.023.09.056.118.099s.043.092.043.146h-.188c0-.042-.013-.074-.039-.097s-.063-.035-.111-.035c-.046 0-.081.01-.107.029s-.038.045-.038.076c0 .03.015.054.044.074s.074.039.132.056c.107.032.184.072.233.119s.073.107.073.178c0 .079-.03.141-.089.186s-.14.067-.241.067c-.07 0-.134-.013-.191-.038s-.101-.061-.132-.106c-.03-.045-.045-.096-.045-.155h.188c0 .1.06.151.18.151.045 0 .079-.009.104-.027s.037-.044.037-.076z"/></symbol><symbol id="icon-client5" viewBox="0 0 40 32"><path fill="var(--color1, #afb1b8)" d="M3.055 26.742c.156.194.24.438.236.688a1.0925 1.0925 0 01-.365.869c-.304.231-.681.343-1.061.317H0v-4.361h1.827c.361-.024.718.078 1.012.29.118.099.211.224.273.366s.089.296.081.45c.011.241-.065.477-.212.667a.9968.9968 0 01-.556.341c.247.045.471.177.63.373zm-2.187-.658h.781c.177.013.354-.038.496-.145.059-.053.104-.119.133-.193s.041-.154.034-.233c.006-.079-.006-.158-.035-.232s-.073-.14-.13-.194a.7504.7504 0 00-.511-.147H.868v1.144zm1.354 1.672c.063-.055.112-.123.144-.2s.046-.16.041-.243c.005-.084-.01-.168-.042-.246s-.083-.147-.146-.202a.8026.8026 0 00-.53-.158H.87v1.199h.83c.187.011.372-.043.524-.151zm4.568.861l-1.016-1.704h-.382v1.704h-.874v-4.361h1.655c.417-.029.83.103 1.152.371.231.237.371.549.393.879s-.073.659-.27.925a1.342 1.342 0 01-.789.443l1.082 1.743H6.79zm-1.399-2.299h.715c.497 0 .745-.22.745-.66.005-.09-.008-.18-.04-.264s-.08-.161-.143-.226a.7714.7714 0 00-.562-.177h-.724l.008 1.327zm6.177 1.421H9.826l-.308.878h-.917l1.6-4.312h.991l1.593 4.312h-.917l-.301-.878zm-.233-.66l-.637-1.841-.637 1.841h1.273zm6.215 1.538h-.868l-1.946-2.965v2.965h-.866v-4.361h.866l1.946 2.983v-2.983h.868v4.361zm4.952-1.044c-.179.329-.453.597-.785.769-.378.192-.797.286-1.22.275h-1.545v-4.361h1.545c.422-.011.841.081 1.22.268.332.168.606.433.785.761a2.5413 2.5413 0 010 2.288zm-.993-.104c.248-.29.384-.659.384-1.041s-.136-.751-.384-1.041a1.506 1.506 0 00-1.086-.371h-.603v2.823h.603c.397.025.787-.108 1.086-.371zM12.111 0s11.201 4.246 10.963 10.39v10.392S11.881 16.534 12.115 10.39L12.111 0zm20.943 18.349a15.3012 15.3012 0 017.117-2.633v-3.253c-2.943 1.139-5.44 3.204-7.117 5.886z"/><path fill="var(--color1, #afb1b8)" d="M31.783 19.329c1.731-3.5 4.733-6.202 8.388-7.548V2.407S24.219 8.455 24.557 17.204v14.795s.711-.271 1.829-.778c0-.473 0-.95.051-1.429.33-4.062 2.253-7.826 5.347-10.464z"/><path fill="var(--color1, #afb1b8)" d="M30.266 24.825c.084-1.026.271-2.041.558-3.029a14.3227 14.3227 0 00-3.335 8.085c-.023.281-.036.562-.042.852a46.367 46.367 0 003.068-1.623 15.3549 15.3549 0 01-.248-4.284zm.634.053c-.106 1.296-.04 2.601.197 3.879 4.358-2.618 9.255-6.664 9.067-11.553v-.426a14.276 14.276 0 00-8.292 3.89c-.53 1.347-.858 2.766-.972 4.21z"/></symbol><symbol id="icon-client6" viewBox="0 0 63 32"><path fill="var(--color1, #afb1b8)" d="M31.815 14.712c-.297-.42-.439-.917-.406-1.417V11.24c0-.63.134-1.109.403-1.436s.731-.491 1.386-.489c.615 0 1.052.139 1.31.418.282.356.419.791.387 1.229v.483h-1.101v-.489c.004-.16-.007-.32-.032-.479a.469.469 0 00-.157-.284c-.113-.082-.255-.121-.399-.111-.151-.01-.3.031-.419.117-.096.084-.16.194-.182.314-.032.168-.046.338-.043.508v2.494c-.017.241.031.481.141.7.055.074.131.133.22.17s.187.05.284.039c.141.011.281-.03.39-.113.09-.082.147-.188.164-.303.026-.165.037-.332.034-.5v-.506h1.101v.462c.031.457-.103.911-.381 1.292-.253.305-.684.458-1.317.458s-1.112-.163-1.383-.502zm4.584.021c-.278-.32-.417-.786-.417-1.403v-2.162c0-.61.139-1.072.417-1.386s.743-.47 1.395-.468c.647 0 1.11.156 1.388.468.278.314.419.776.419 1.386v2.162c0 .61-.141 1.079-.424 1.401s-.743.483-1.383.483-1.114-.163-1.395-.481zm1.907-.519c.1-.2.145-.42.132-.64v-2.647c.013-.216-.032-.431-.13-.627-.056-.076-.134-.135-.225-.172s-.192-.05-.29-.037c-.099-.013-.2 0-.291.037s-.17.096-.226.172c-.1.196-.146.411-.132.627v2.659c-.014.22.032.44.132.64.064.067.143.121.232.159s.185.056.283.056.194-.019.283-.056a.6715.6715 0 00.232-.159v-.012zm2.619-4.837h1.185l.891 3.988.912-3.988h1.153l.116 5.756h-.852l-.091-4.001-.88 4.001h-.684l-.912-4.015-.084 4.015h-.861l.107-5.756zm5.586 0h1.846c1.064 0 1.595.545 1.595 1.634 0 1.044-.56 1.565-1.68 1.564h-.629v2.558h-1.139l.007-5.756zm1.577 2.46c.113.013.227.004.335-.028s.208-.084.292-.154a.9756.9756 0 00.164-.65c.006-.176-.012-.351-.055-.523-.016-.057-.045-.111-.084-.158s-.088-.086-.144-.116c-.158-.07-.333-.101-.508-.092h-.442v1.72h.442zm3.507-2.46h1.224l1.256 5.756h-1.062l-.248-1.327h-1.092l-.255 1.327H50.34l1.256-5.756zm1.046 3.763l-.426-2.416-.426 2.416h.852zm2.448-3.763h.798l1.527 3.284V9.377h.946v5.756h-.759l-1.536-3.428v3.428h-.978l.002-5.756zm5.486 3.562l-1.269-3.553h1.069l.775 2.283.727-2.283h1.046l-1.253 3.553v2.195h-1.094v-2.195zm-27 4.712v.301h-.93v2.339h-.39v-2.339h-.934v-.301h2.254zm2.915 2.64h-.301a.1233.1233 0 01-.084-.025.1296.1296 0 01-.05-.061l-.269-.627h-1.29l-.269.627a.1885.1885 0 01-.041.071.1386.1386 0 01-.084.025h-.301l1.14-2.64h.397l1.153 2.63zm-1.887-.98h1.076l-.456-1.074a1.8222 1.8222 0 01-.084-.249c-.016.05-.03.098-.043.14l-.041.111-.451 1.072zm3.851.721c.071.003.143.003.214 0 .062-.006.123-.016.182-.031.056-.012.111-.029.164-.048.05-.019.1-.042.153-.065v-.594h-.456c-.011.001-.023-.001-.033-.005s-.02-.009-.028-.016c-.008-.006-.013-.013-.017-.022s-.006-.017-.005-.026v-.203h.884v1.012a1.673 1.673 0 01-.228.125 1.584 1.584 0 01-.253.09 1.937 1.937 0 01-.285.054c-.111.011-.222.017-.333.017a1.638 1.638 0 01-.574-.098 1.3826 1.3826 0 01-.456-.276c-.127-.12-.227-.262-.294-.418a1.3989 1.3989 0 01-.105-.548c-.002-.188.032-.375.103-.552.066-.156.166-.299.294-.418.13-.119.285-.212.456-.274.195-.067.402-.101.611-.098.106 0 .212.008.317.023.093.014.184.036.271.067.08.027.156.063.228.105.07.041.136.087.198.138l-.109.163c-.009.015-.021.027-.037.036s-.034.014-.052.014a.147.147 0 01-.071-.021 1.5499 1.5499 0 01-.112-.063.9255.9255 0 00-.153-.071 1.483 1.483 0 00-.21-.059 1.6411 1.6411 0 00-.289-.023c-.15-.002-.3.023-.44.073a.9586.9586 0 00-.335.209.9303.9303 0 00-.212.328c-.102.286-.102.594 0 .88.05.124.128.237.228.332.093.091.207.162.333.209.145.046.299.063.451.052zm3.633-.042h1.244v.301h-1.625v-2.64h.39l-.009 2.339zm2.539.301h-.39v-2.64h.39v2.64zm1.45-2.628c.023.012.043.029.059.048l1.666 1.99a.737.737 0 010-.094V17.64h.34v2.651h-.196a.1723.1723 0 01-.084-.015.2312.2312 0 01-.062-.05l-1.664-1.988v2.053h-.326v-2.64h.203c.022 0 .044.004.064.012zm4.934-.012v.291h-1.381v.872h1.119v.28h-1.119v.901h1.381v.291h-1.782v-2.634h1.782zM10.171 1.346l17.305 4.507v15.793l-17.305-4.505V1.346zM9.061 0v17.908l19.522 5.086V5.088L9.061 0z"/><path fill="var(--color1, #afb1b8)" d="M19.525 31.307L0 26.217V8.311l19.525 5.088v17.908z"/><path fill="var(--color1, #afb1b8)" d="M9.385 1.143l17.079 4.45-7.263 6.664L2.12 7.805l7.266-6.662zM9.061 0L0 8.311l19.525 5.088 9.059-8.311L9.062 0zm11.562 30.299l7.961-7.303-7.961-2.076v9.379z"/></symbol><symbol id="icon-envelope" viewBox="0 0 43 32"><path fill="var(--color2, #757575)" d="M38.667 0H4C1.794 0 0 1.675 0 3.734v22.404c0 2.059 1.794 3.734 4 3.734h34.667c2.206 0 4-1.675 4-3.734V3.734c0-2.059-1.794-3.734-4-3.734zm0 2.489c.181 0 .353.035.511.096L21.334 17.022 3.49 2.585c.158-.061.33-.096.511-.096h34.667zm0 24.894H4c-.736 0-1.333-.558-1.333-1.245V5.216L20.46 19.611c.251.203.563.304.874.304s.622-.101.874-.304L40.001 5.216v20.922c0 .687-.598 1.245-1.333 1.245z"/></symbol><symbol id="icon-facebook" viewBox="0 0 32 32"><path d="M21.328 5.312h2.923V.224C23.019.081 21.591 0 20.144 0h-.157.008c-4.213 0-7.099 2.65-7.099 7.52V12H8.25v5.688h4.646V32h5.698V17.69h4.461l.707-5.688h-5.168V8.08c0-1.643.443-2.768 2.734-2.768z"/></symbol><symbol id="icon-header" viewBox="0 0 85 32"><path d="M0 0h85.333v32H0z"/></symbol><symbol id="icon-icon-send" viewBox="0 0 32 32"><path fill="var(--color3, #fff)" d="M32 0L0 18l10.227 3.787L26 7 14.003 23.187l.009.003-.012-.003V32l5.735-6.691L27.002 28l4.999-28z"/></symbol><symbol id="icon-instagram" viewBox="0 0 32 32"><path d="M31.969 9.408c-.075-1.7-.35-2.869-.744-3.882-.406-1.075-1.032-2.038-1.851-2.838A7.8671 7.8671 0 0026.542.844C25.523.45 24.36.175 22.66.1 20.947.019 20.403 0 16.059 0s-4.888.019-6.595.094c-1.7.075-2.869.35-3.882.744-1.075.406-2.038 1.031-2.838 1.85C1.931 3.488 1.3 4.457.9 5.52.506 6.539.231 7.702.156 9.402c-.081 1.713-.1 2.257-.1 6.601s.019 4.888.094 6.595c.075 1.7.35 2.869.744 3.882.406 1.075 1.038 2.038 1.85 2.838.8.813 1.769 1.444 2.832 1.844 1.019.394 2.182.669 3.882.744 1.706.075 2.25.094 6.595.094s4.888-.019 6.595-.094c1.7-.075 2.869-.35 3.882-.744a8.1843 8.1843 0 004.682-4.682c.394-1.019.669-2.182.744-3.882.075-1.707.094-2.251.094-6.595s-.006-4.888-.081-6.595zm-2.882 13.065c-.069 1.563-.331 2.407-.55 2.969a5.3097 5.3097 0 01-3.038 3.038c-.563.219-1.413.481-2.969.55-1.688.075-2.194.094-6.464.094s-4.782-.019-6.464-.094c-1.563-.069-2.407-.331-2.969-.55-.694-.256-1.325-.663-1.838-1.194-.531-.519-.938-1.144-1.194-1.838-.219-.563-.481-1.413-.55-2.969-.075-1.688-.094-2.194-.094-6.464s.019-4.782.094-6.464c.069-1.563.331-2.407.55-2.969.256-.694.663-1.325 1.2-1.838.519-.531 1.144-.938 1.838-1.194.563-.219 1.413-.481 2.969-.55 1.688-.075 2.194-.094 6.464-.094 4.276 0 4.782.019 6.464.094 1.563.069 2.407.331 2.969.55.694.256 1.325.662 1.838 1.194.531.519.938 1.144 1.194 1.838.219.563.481 1.413.55 2.969.075 1.688.094 2.194.094 6.464s-.019 4.77-.094 6.458z"/><path d="M16.059 7.783c-4.538 0-8.22 3.682-8.22 8.22s3.682 8.22 8.22 8.22c4.539 0 8.22-3.682 8.22-8.22s-3.682-8.22-8.22-8.22zm0 13.552c-2.944 0-5.332-2.388-5.332-5.332s2.388-5.332 5.332-5.332 5.332 2.388 5.332 5.332-2.388 5.332-5.332 5.332zM26.524 7.458c0 1.06-.859 1.919-1.919 1.919s-1.919-.859-1.919-1.919.859-1.919 1.919-1.919 1.919.859 1.919 1.919z"/></symbol><symbol id="icon-linkedin" viewBox="0 0 32 32"><path d="M31.992 32v-.001H32V20.263c0-5.741-1.236-10.164-7.948-10.164-3.227 0-5.392 1.771-6.276 3.449h-.093v-2.913h-6.364v21.364h6.627V21.42c0-2.785.528-5.479 3.977-5.479 3.399 0 3.449 3.179 3.449 5.657v10.401h6.62zM.528 10.636h6.635V32H.528V10.636zM3.843 0C1.722 0 0 1.721 0 3.843s1.721 3.879 3.843 3.879c2.121 0 3.843-1.757 3.843-3.879C7.685 1.722 5.963 0 3.843 0z"/></symbol><symbol id="icon-smartphone" viewBox="0 0 21 32"><path fill="var(--color2, #757575)" d="M18.133 0H3.2C1.435 0 0 1.298 0 2.894v25.083c0 1.596 1.435 2.894 3.2 2.894h14.933c1.764 0 3.2-1.298 3.2-2.894V2.894c0-1.596-1.436-2.894-3.2-2.894zM3.2 1.929h14.933c.589 0 1.067.432 1.067.965v20.259H2.133V2.894c0-.532.478-.965 1.067-.965zm14.933 27.012H3.2c-.589 0-1.067-.432-1.067-.965v-2.894H19.2v2.894c0 .532-.478.965-1.067.965z"/><path fill="var(--color2, #757575)" d="M5.021 26.33c.417.377.417.988 0 1.364s-1.092.377-1.508 0c-.417-.377-.417-.988 0-1.364s1.092-.377 1.508 0z"/></symbol><symbol id="icon-twitter" viewBox="0 0 32 32"><path d="M32 6.078c-1.19.522-2.458.868-3.78 1.036 1.36-.812 2.398-2.088 2.886-3.626-1.268.756-2.668 1.29-4.16 1.588C25.742 3.794 24.026 3 22.154 3c-3.632 0-6.556 2.948-6.556 6.562 0 .52.044 1.02.152 1.496-5.454-.266-10.28-2.88-13.522-6.862-.566.982-.898 2.106-.898 3.316 0 2.272 1.17 4.286 2.914 5.452-1.054-.02-2.088-.326-2.964-.808v.072c0 3.188 2.274 5.836 5.256 6.446-.534.146-1.116.216-1.72.216-.42 0-.844-.024-1.242-.112.85 2.598 3.262 4.508 6.13 4.57-2.214 1.744-5.044 2.798-8.12 2.798h-.015.001c-.538 0-1.054-.024-1.57-.09C2.906 27.93 6.35 29 10.064 29c12.072 0 18.672-10 18.672-18.668 0-.29-.01-.57-.024-.848C30.014 8.56 31.108 7.406 32 6.078z"/></symbol></defs></svg>