<svg aria-hidden="true" style="position: absolute; width: 0; height: 0; overflow: hidden;" version="1.1" xmlns="http://www.w3.org/2000/svg" xmlns:xlink="http://www.w3.org/1999/xlink">
<defs>
<symbol id="icon-client1" viewBox="0 0 64 32">
<path fill="#afb1b8" style="fill: var(--color1, #afb1b8)" d="M1.28 0l1.559 1.43h4.349v3.989l1.559 1.43v-6.848h-7.467z"></path>
<path fill="#afb1b8" style="fill: var(--color1, #afb1b8)" d="M0 1.37v6.653h7.253v-2.644l-4.368-4.007-2.885-0.002zM5.872 7.049h-4.724v-4.474h0.334v4.171h4.39v0.303zM2.089 9.277l0.174-0.359h0.146l-0.254 0.479v0.279h-0.132v-0.279l-0.255-0.479h0.146l0.174 0.359zM2.838 9.499h-0.294l-0.061 0.177h-0.137l0.286-0.758h0.118l0.287 0.758h-0.138l-0.062-0.177zM2.581 9.393h0.22l-0.11-0.315-0.11 0.315zM3.357 9.471c0-0.035 0.010-0.067 0.029-0.096s0.057-0.064 0.113-0.105c-0.030-0.037-0.050-0.069-0.062-0.095s-0.017-0.051-0.017-0.076c0-0.059 0.018-0.106 0.054-0.141s0.085-0.052 0.146-0.052c0.055 0 0.1 0.016 0.135 0.049s0.053 0.072 0.053 0.12c0 0.032-0.008 0.061-0.024 0.088s-0.042 0.053-0.079 0.079l-0.052 0.037 0.146 0.173c0.021-0.042 0.032-0.088 0.032-0.139h0.11c0 0.093-0.022 0.17-0.066 0.23l0.111 0.132h-0.147l-0.043-0.051c-0.054 0.041-0.119 0.061-0.194 0.061s-0.135-0.020-0.18-0.059c-0.045-0.040-0.067-0.092-0.067-0.156zM3.608 9.585c0.043 0 0.083-0.014 0.12-0.043l-0.166-0.195-0.016 0.011c-0.042 0.032-0.063 0.068-0.063 0.108 0 0.035 0.011 0.064 0.034 0.085s0.053 0.033 0.091 0.033zM3.538 9.097c0 0.029 0.018 0.066 0.054 0.11l0.058-0.040 0.016-0.013c0.022-0.019 0.032-0.044 0.032-0.073 0-0.020-0.007-0.037-0.022-0.051s-0.034-0.021-0.057-0.021c-0.025 0-0.044 0.008-0.059 0.025s-0.022 0.038-0.022 0.063zM4.916 9.429c-0.008 0.081-0.037 0.144-0.090 0.19s-0.121 0.068-0.208 0.068c-0.060 0-0.114-0.014-0.16-0.043s-0.081-0.070-0.106-0.122-0.038-0.114-0.039-0.184v-0.071c0-0.072 0.013-0.135 0.038-0.189s0.062-0.097 0.109-0.126c0.048-0.030 0.102-0.044 0.165-0.044 0.084 0 0.151 0.023 0.202 0.068s0.081 0.11 0.089 0.193h-0.131c-0.006-0.055-0.022-0.094-0.048-0.118s-0.063-0.036-0.112-0.036c-0.057 0-0.101 0.021-0.132 0.063s-0.046 0.103-0.047 0.184v0.067c0 0.082 0.015 0.144 0.044 0.188s0.073 0.065 0.129 0.065c0.052 0 0.091-0.012 0.117-0.035s0.043-0.062 0.049-0.116h0.131zM5.639 9.317c0 0.074-0.013 0.14-0.039 0.196s-0.063 0.099-0.11 0.129c-0.048 0.030-0.102 0.045-0.165 0.045s-0.116-0.015-0.165-0.045c-0.048-0.030-0.085-0.073-0.111-0.129s-0.039-0.12-0.040-0.192v-0.043c0-0.074 0.013-0.139 0.039-0.196s0.063-0.1 0.111-0.13c0.048-0.030 0.103-0.045 0.165-0.045s0.116 0.015 0.164 0.045c0.048 0.030 0.085 0.072 0.111 0.128s0.039 0.12 0.040 0.194v0.042zM5.508 9.277c0-0.084-0.016-0.148-0.048-0.193s-0.077-0.067-0.135-0.067c-0.057 0-0.102 0.022-0.134 0.067s-0.048 0.107-0.049 0.189v0.044c0 0.083 0.016 0.148 0.048 0.193s0.078 0.068 0.135 0.068c0.058 0 0.103-0.022 0.134-0.067s0.047-0.109 0.047-0.195v-0.040z"></path>
</symbol>
<symbol id="icon-client2" viewBox="0 0 64 32">
<path fill="#afb1b8" style="fill: var(--color1, #afb1b8)" d="M3.622 0.626h0.029c0.054 0 0.112 0.005 0.17 0.010 0.254 0.018 0.507 0.056 0.756 0.114v-0.611c-0.256-0.064-0.517-0.106-0.78-0.124-0.1-0.008-0.206-0.012-0.315-0.015h-0.091c-0.528 0.002-1.054 0.070-1.565 0.202-0.582 0.145-1.142 0.373-1.661 0.675v6.058c0.5-0.272 1.032-0.479 1.583-0.617 0.435-0.111 0.88-0.179 1.329-0.204h0.018c0.075-0.004 0.15-0.006 0.227-0.007v-0.621c-0.583 0.008-1.162 0.085-1.727 0.229-0.209 0.054-0.411 0.113-0.6 0.178l-0.216 0.073v-4.723l0.092-0.044c0.704-0.334 1.466-0.528 2.243-0.572 0.006-0 0.013-0 0.019 0 0.086-0.004 0.172-0.006 0.257-0.006h0.097c0.045 0.001 0.090 0.002 0.134 0.005z"></path>
<path fill="#afb1b8" style="fill: var(--color1, #afb1b8)" d="M5.144 1.266c-0.142 0-0.282-0.005-0.418-0.015-0.162-0.012-0.328-0.031-0.486-0.058-0.096-0.016-0.191-0.036-0.282-0.057v5.989c0.388 0.096 0.787 0.143 1.187 0.14 0.528-0.002 1.054-0.070 1.565-0.201 0.583-0.145 1.142-0.373 1.661-0.675v-5.95c-0.5 0.271-1.031 0.479-1.582 0.617-0.538 0.138-1.090 0.209-1.645 0.211zM7.538 1.369l0.216-0.073v4.725l-0.092 0.044c-0.354 0.168-0.724 0.301-1.104 0.397-0.461 0.119-0.936 0.181-1.412 0.183-0.142 0-0.284-0.006-0.421-0.018l-0.148-0.013v-4.859l0.172 0.011c0.125 0.008 0.255 0.012 0.396 0.012 0.605-0.002 1.207-0.079 1.793-0.23 0.201-0.053 0.402-0.113 0.6-0.18zM0.584 9.005c-0.031-0.032-0.068-0.057-0.11-0.074s-0.086-0.025-0.13-0.023c-0.047-0.001-0.095 0.008-0.139 0.026-0.040 0.016-0.077 0.040-0.108 0.071s-0.054 0.068-0.070 0.108c-0.017 0.043-0.025 0.088-0.025 0.134v0.809c-0.002 0.057 0.009 0.114 0.032 0.166 0.019 0.041 0.047 0.078 0.081 0.108 0.032 0.027 0.070 0.047 0.111 0.057 0.039 0.011 0.080 0.017 0.121 0.017 0.045 0 0.090-0.009 0.131-0.028 0.040-0.018 0.077-0.043 0.108-0.075s0.054-0.068 0.071-0.108c0.017-0.041 0.026-0.085 0.026-0.129v-0.091h-0.212v0.072c0.001 0.025-0.004 0.049-0.012 0.072-0.007 0.017-0.017 0.033-0.031 0.046-0.013 0.011-0.028 0.018-0.044 0.023-0.014 0.005-0.029 0.007-0.044 0.008-0.019 0.002-0.038-0.001-0.055-0.008s-0.033-0.020-0.044-0.035c-0.020-0.033-0.030-0.070-0.028-0.108v-0.755c-0.001-0.042 0.008-0.083 0.026-0.121 0.011-0.017 0.027-0.031 0.045-0.039s0.039-0.012 0.059-0.009c0.018-0.001 0.036 0.003 0.053 0.011s0.031 0.020 0.042 0.034c0.024 0.031 0.036 0.069 0.035 0.108v0.070h0.209v-0.082c0-0.048-0.008-0.097-0.026-0.142-0.016-0.042-0.040-0.081-0.071-0.114zM1.841 8.996c-0.067-0.057-0.153-0.088-0.241-0.089-0.043 0-0.086 0.008-0.126 0.023s-0.079 0.037-0.112 0.066c-0.035 0.031-0.063 0.070-0.082 0.113-0.021 0.049-0.032 0.103-0.031 0.157v0.776c-0.001 0.055 0.009 0.109 0.031 0.159 0.019 0.042 0.047 0.079 0.082 0.108 0.032 0.030 0.070 0.053 0.112 0.068s0.083 0.023 0.126 0.023c0.043-0 0.086-0.008 0.126-0.023 0.042-0.015 0.081-0.039 0.114-0.068s0.061-0.067 0.080-0.108c0.022-0.050 0.032-0.104 0.031-0.159v-0.776c0.001-0.054-0.009-0.107-0.031-0.157-0.019-0.043-0.046-0.081-0.080-0.113zM1.742 10.043c0.002 0.021-0.001 0.041-0.008 0.061s-0.019 0.037-0.034 0.051c-0.028 0.023-0.063 0.036-0.1 0.036s-0.072-0.013-0.1-0.036c-0.015-0.014-0.026-0.032-0.034-0.051s-0.010-0.040-0.008-0.061v-0.776c-0.002-0.021 0.001-0.041 0.008-0.061s0.019-0.037 0.034-0.051c0.028-0.023 0.063-0.036 0.1-0.036s0.072 0.013 0.1 0.036c0.015 0.014 0.026 0.032 0.034 0.051s0.010 0.040 0.008 0.061v0.776zM3.492 10.389v-1.47h-0.203l-0.267 0.778h-0.004l-0.269-0.778h-0.201v1.47h0.21v-0.894h0.004l0.206 0.632h0.105l0.207-0.632h0.004v0.894h0.21zM4.684 9.023c-0.032-0.036-0.073-0.064-0.119-0.080-0.049-0.016-0.101-0.024-0.152-0.023h-0.312v1.47h0.209v-0.574h0.108c0.065 0.003 0.13-0.011 0.189-0.040 0.048-0.026 0.087-0.065 0.115-0.112 0.024-0.039 0.041-0.083 0.048-0.128 0.008-0.055 0.012-0.111 0.011-0.167 0.002-0.071-0.005-0.141-0.021-0.21-0.014-0.051-0.040-0.097-0.077-0.135zM4.576 9.471c-0.001 0.027-0.008 0.053-0.019 0.076-0.012 0.023-0.031 0.041-0.054 0.052-0.031 0.014-0.065 0.020-0.099 0.018h-0.096v-0.5h0.108c0.032-0.002 0.065 0.005 0.094 0.018 0.022 0.012 0.039 0.031 0.049 0.054 0.011 0.026 0.018 0.054 0.018 0.082v0.098c0 0.034 0.002 0.069 0 0.101h-0.002zM5.676 8.92h-0.172l-0.324 1.47h0.209l0.062-0.316h0.285l0.062 0.316h0.209l-0.332-1.47zM5.483 9.873l0.103-0.533h0.004l0.103 0.533h-0.209zM7.029 9.805h-0.004l-0.316-0.885h-0.201v1.47h0.209v-0.884h0.004l0.32 0.884h0.197v-1.47h-0.209v0.885zM8.309 8.92l-0.168 0.584h-0.004l-0.168-0.584h-0.222l0.288 0.848v0.621h0.209v-0.621l0.288-0.848h-0.222zM0 10.804h0.101v0.283h0.069v-0.283h0.1v-0.058h-0.27v0.058zM0.848 10.746l-0.132 0.341h0.073l0.028-0.078h0.136l0.029 0.078h0.074l-0.135-0.341h-0.073zM0.838 10.952l0.046-0.126 0.046 0.126h-0.093zM1.687 10.961h0.079v0.044c-0.023 0.018-0.052 0.029-0.081 0.029-0.014 0.001-0.028-0.002-0.040-0.007s-0.024-0.014-0.032-0.025c-0.018-0.026-0.027-0.057-0.025-0.089 0-0.076 0.033-0.114 0.098-0.114 0.017-0.002 0.034 0.003 0.049 0.013s0.024 0.025 0.029 0.041l0.067-0.013c-0.015-0.067-0.063-0.1-0.145-0.1-0.044-0.001-0.087 0.015-0.119 0.044-0.017 0.017-0.030 0.037-0.039 0.060s-0.012 0.047-0.010 0.071c-0.002 0.047 0.014 0.092 0.044 0.128 0.017 0.017 0.037 0.031 0.059 0.039s0.046 0.012 0.070 0.011c0.053 0.002 0.105-0.018 0.145-0.054v-0.135h-0.148v0.057zM2.543 10.746h-0.069v0.341h0.239v-0.058h-0.17v-0.283zM3.268 10.746h-0.069v0.341h0.069v-0.341zM3.976 10.974l-0.14-0.228h-0.067v0.341h0.064v-0.223l0.137 0.223h0.069v-0.341h-0.063v0.228zM4.616 10.937h0.17v-0.058h-0.17v-0.075h0.183v-0.058h-0.252v0.341h0.259v-0.058h-0.19v-0.092zM6.168 10.881h-0.134v-0.135h-0.069v0.341h0.069v-0.149h0.134v0.149h0.069v-0.341h-0.069v0.135zM6.812 10.937h0.171v-0.058h-0.171v-0.075h0.183v-0.058h-0.252v0.341h0.258v-0.058h-0.19v-0.092zM7.685 10.937c0.059-0.009 0.090-0.041 0.090-0.095 0.002-0.014-0-0.029-0.006-0.043s-0.015-0.025-0.027-0.033c-0.031-0.016-0.065-0.022-0.1-0.020h-0.145v0.341h0.069v-0.143h0.013c0.015-0.001 0.029 0.002 0.043 0.008 0.010 0.006 0.018 0.015 0.024 0.025l0.074 0.108h0.082l-0.042-0.067c-0.018-0.033-0.044-0.061-0.076-0.082zM7.616 10.89h-0.051v-0.086h0.054c0.024-0.002 0.047 0.001 0.070 0.008 0.005 0.004 0.009 0.010 0.012 0.016s0.004 0.013 0.003 0.019c-0 0.007-0.002 0.013-0.005 0.019s-0.008 0.011-0.013 0.015c-0.023 0.007-0.046 0.010-0.070 0.008zM8.343 10.937h0.17v-0.058h-0.17v-0.075h0.184v-0.058h-0.253v0.341h0.259v-0.058h-0.19v-0.092z"></path>
</symbol>
<symbol id="icon-client3" viewBox="0 0 64 32">
<path fill="#afb1b8" style="fill: var(--color1, #afb1b8)" d="M1.354 8.638c0.003 0 0.006 0.001 0.009 0.002s0.006 0.003 0.008 0.005l0.044 0.045c-0.034 0.036-0.076 0.065-0.123 0.085-0.055 0.021-0.115 0.032-0.175 0.030-0.056 0.001-0.112-0.009-0.165-0.028-0.047-0.018-0.089-0.045-0.124-0.080-0.035-0.036-0.063-0.078-0.080-0.124-0.019-0.051-0.029-0.105-0.028-0.159-0.001-0.054 0.009-0.108 0.030-0.159 0.019-0.046 0.048-0.088 0.085-0.124s0.082-0.062 0.132-0.081c0.054-0.019 0.112-0.029 0.17-0.028 0.054-0.001 0.107 0.008 0.157 0.026 0.043 0.017 0.083 0.042 0.118 0.071l-0.037 0.048c-0.003 0.003-0.006 0.006-0.009 0.009s-0.010 0.004-0.015 0.004c-0.006-0-0.011-0.002-0.016-0.005l-0.020-0.013-0.027-0.016c-0.012-0.006-0.024-0.011-0.037-0.016-0.016-0.005-0.033-0.010-0.050-0.013-0.022-0.004-0.043-0.005-0.065-0.005-0.042-0.001-0.083 0.007-0.122 0.021-0.036 0.013-0.069 0.034-0.095 0.060-0.027 0.028-0.048 0.060-0.062 0.095-0.015 0.040-0.023 0.083-0.022 0.126-0.001 0.043 0.007 0.087 0.022 0.128 0.013 0.035 0.034 0.067 0.061 0.095 0.025 0.026 0.056 0.046 0.091 0.059s0.074 0.021 0.113 0.020c0.022 0 0.045-0.001 0.067-0.004 0.036-0.004 0.071-0.016 0.101-0.034 0.015-0.009 0.030-0.020 0.043-0.031 0.006-0.005 0.013-0.008 0.021-0.008zM2.621 8.414c0.001 0.054-0.009 0.107-0.030 0.158-0.018 0.046-0.046 0.087-0.083 0.122s-0.081 0.062-0.13 0.080c-0.107 0.038-0.226 0.038-0.334 0-0.049-0.018-0.093-0.046-0.129-0.081s-0.065-0.078-0.083-0.124c-0.040-0.102-0.040-0.214 0-0.316 0.019-0.046 0.047-0.088 0.083-0.124 0.037-0.034 0.081-0.060 0.129-0.077 0.107-0.039 0.226-0.039 0.334 0 0.049 0.018 0.093 0.046 0.13 0.081s0.064 0.077 0.083 0.122c0.020 0.051 0.030 0.104 0.030 0.159zM2.506 8.414c0.001-0.043-0.006-0.086-0.021-0.127-0.012-0.035-0.032-0.067-0.059-0.095-0.026-0.026-0.057-0.046-0.093-0.060-0.078-0.028-0.164-0.028-0.243 0-0.035 0.013-0.067 0.034-0.093 0.060-0.027 0.027-0.047 0.060-0.059 0.095-0.028 0.082-0.028 0.171 0 0.253 0.012 0.035 0.033 0.067 0.059 0.095 0.026 0.026 0.057 0.046 0.093 0.059 0.078 0.027 0.164 0.027 0.243 0 0.035-0.013 0.067-0.033 0.093-0.059 0.026-0.028 0.046-0.060 0.059-0.095 0.015-0.041 0.022-0.084 0.021-0.127zM3.486 8.547l0.012 0.028c0.004-0.010 0.008-0.019 0.013-0.028s0.009-0.019 0.014-0.028l0.28-0.471c0.005-0.008 0.010-0.013 0.016-0.015 0.007-0.002 0.015-0.003 0.023-0.003h0.083v0.765h-0.098v-0.587c-0.001-0.009-0.001-0.018 0-0.026l-0.282 0.477c-0.004 0.007-0.009 0.013-0.017 0.017s-0.016 0.006-0.024 0.006h-0.016c-0.009 0-0.017-0.002-0.024-0.006s-0.013-0.010-0.016-0.018l-0.29-0.48v0.614h-0.095v-0.764h0.083c0.008-0 0.016 0 0.023 0.003 0.007 0.003 0.012 0.008 0.015 0.015l0.286 0.471c0.006 0.009 0.010 0.018 0.014 0.027zM4.541 8.509v0.287h-0.11v-0.764h0.245c0.046-0.001 0.092 0.005 0.137 0.017 0.036 0.009 0.068 0.025 0.097 0.048 0.024 0.021 0.043 0.046 0.055 0.075 0.013 0.031 0.019 0.064 0.019 0.098 0 0.034-0.006 0.067-0.020 0.098-0.013 0.029-0.033 0.056-0.059 0.076-0.028 0.023-0.061 0.040-0.097 0.051-0.043 0.013-0.087 0.019-0.132 0.018l-0.133-0.002zM4.541 8.427h0.133c0.029 0 0.058-0.004 0.085-0.012 0.023-0.007 0.044-0.018 0.061-0.033 0.016-0.014 0.029-0.031 0.037-0.051 0.009-0.020 0.013-0.042 0.013-0.064 0.001-0.021-0.002-0.043-0.011-0.062s-0.022-0.038-0.038-0.052c-0.042-0.030-0.095-0.045-0.148-0.041h-0.133v0.315zM6.016 8.797h-0.087c-0.009 0-0.017-0.002-0.024-0.007s-0.011-0.011-0.014-0.018l-0.075-0.185h-0.375l-0.077 0.185c-0.003 0.007-0.008 0.013-0.014 0.017s-0.016 0.008-0.025 0.008h-0.087l0.329-0.765h0.114l0.334 0.765zM5.473 8.513h0.309l-0.131-0.312c-0.010-0.023-0.018-0.047-0.025-0.072l-0.013 0.040c-0.004 0.012-0.008 0.023-0.012 0.032l-0.13 0.311zM6.49 8.035c0.007 0.003 0.012 0.008 0.016 0.014l0.48 0.577v-0.594h0.098v0.765h-0.055c-0.008 0-0.016-0.001-0.022-0.005s-0.013-0.008-0.018-0.014l-0.48-0.576c0.001 0.009 0.001 0.018 0 0.026v0.569h-0.098v-0.765h0.058c0.007-0 0.014 0.001 0.020 0.004zM7.894 8.492v0.304h-0.11v-0.304l-0.303-0.461h0.098c0.008-0 0.017 0.002 0.024 0.007s0.011 0.011 0.015 0.017l0.19 0.297c0.008 0.013 0.014 0.024 0.020 0.035s0.010 0.022 0.014 0.032l0.014-0.033c0.005-0.012 0.012-0.024 0.019-0.035l0.187-0.299c0.004-0.006 0.009-0.011 0.014-0.016s0.015-0.008 0.024-0.008h0.099l-0.304 0.463zM3.432 6.747c0.048 0.006 0.096 0.010 0.145 0.014 0.74-0.306 1.367-0.806 1.801-1.439s0.656-1.369 0.639-2.118l-0.816-0.753c0.166 0.797 0.088 1.621-0.224 2.379s-0.847 1.422-1.545 1.916z"></path>
<path fill="#afb1b8" style="fill: var(--color1, #afb1b8)" d="M3.14 6.712l0.022 0.004c0.745-0.492 1.314-1.179 1.631-1.973s0.37-1.657 0.151-2.478l-1.162-1.073c0.47 0.882 0.659 1.869 0.546 2.846s-0.526 1.904-1.188 2.674zM7.082 4.090c-0.197 0.822-0.677 1.564-1.367 2.115-0.202 0.162-0.419 0.306-0.65 0.431 0.562-0.153 1.079-0.422 1.51-0.788s0.766-0.819 0.978-1.323l-0.471-0.435z"></path>
<path fill="#afb1b8" style="fill: var(--color1, #afb1b8)" d="M6.897 3.968l-0.671-0.619c-0.013 0.706-0.23 1.396-0.63 1.999s-0.967 1.095-1.642 1.427h0.003c0.151-0 0.301-0.008 0.45-0.025 0.631-0.238 1.189-0.616 1.624-1.102s0.732-1.062 0.866-1.679zM3.237 0.74l-0.801-0.74c-0.716 0.255-1.331 0.704-1.766 1.288s-0.669 1.275-0.671 1.983c0.003 0.783 0.288 1.542 0.811 2.158s1.253 1.053 2.076 1.243c0.734-0.826 1.164-1.846 1.227-2.913s-0.244-2.124-0.877-3.019zM8.747 3.854c-0.003-0.929-0.404-1.818-1.115-2.475s-1.675-1.027-2.681-1.029c-0.465-0-0.926 0.079-1.359 0.234l4.902 4.525c0.168-0.4 0.254-0.825 0.254-1.254z"></path>
</symbol>
<symbol id="icon-client4" viewBox="0 0 64 32">
<path fill="#afb1b8" style="fill: var(--color1, #afb1b8)" d="M2.724 2.652h-0.001c-0.497 0-0.9 0.369-0.9 0.825v0.001c0 0.456 0.403 0.825 0.9 0.825h0.001c0.497 0 0.9-0.369 0.9-0.825v-0.001c0-0.456-0.403-0.825-0.9-0.825zM9.363 2.388c-0.001-0.633-0.276-1.24-0.764-1.687s-1.149-0.7-1.839-0.701c-0.69 0.001-1.352 0.253-1.84 0.701s-0.763 1.054-0.764 1.687v3.49s5.207-0.532 5.208-3.49v-0.001zM0 7.024c0.001 0.44 0.193 0.862 0.532 1.174s0.799 0.487 1.28 0.488c0.48-0.001 0.94-0.177 1.279-0.488s0.531-0.733 0.532-1.173v-2.428s-3.623 0.37-3.623 2.428zM1.812 7.459c-0.094 0-0.186-0.026-0.264-0.073s-0.139-0.116-0.175-0.195c-0.036-0.080-0.045-0.167-0.027-0.251s0.064-0.162 0.13-0.223c0.066-0.061 0.151-0.102 0.243-0.119s0.187-0.008 0.274 0.025c0.087 0.033 0.161 0.089 0.213 0.16s0.080 0.156 0.080 0.242c0 0.057-0.012 0.114-0.036 0.167s-0.059 0.101-0.103 0.142c-0.044 0.041-0.096 0.073-0.154 0.095s-0.119 0.033-0.182 0.033v-0.002zM5.491 7.217h-0.36v0.372h-0.188v-0.91h0.593v0.152h-0.405v0.235h0.36v0.151zM6.393 7.155c0 0.090-0.016 0.168-0.048 0.236s-0.077 0.12-0.136 0.156c-0.059 0.037-0.126 0.055-0.203 0.055s-0.143-0.018-0.202-0.054-0.105-0.088-0.138-0.155c-0.032-0.067-0.049-0.145-0.049-0.232v-0.045c0-0.090 0.016-0.168 0.048-0.236s0.078-0.121 0.137-0.157c0.059-0.037 0.127-0.055 0.202-0.055s0.143 0.018 0.202 0.055c0.059 0.036 0.105 0.089 0.137 0.157s0.049 0.146 0.049 0.236v0.041zM6.203 7.113c0-0.095-0.017-0.168-0.051-0.218s-0.083-0.074-0.146-0.074c-0.063 0-0.111 0.025-0.146 0.074s-0.051 0.12-0.052 0.215v0.044c0 0.093 0.017 0.165 0.051 0.216s0.083 0.077 0.147 0.077c0.063 0 0.111-0.025 0.145-0.074s0.051-0.122 0.051-0.216v-0.044zM7.001 7.35c0-0.035-0.013-0.063-0.037-0.081s-0.070-0.039-0.135-0.060c-0.065-0.021-0.116-0.042-0.154-0.063-0.103-0.056-0.155-0.131-0.155-0.226 0-0.049 0.014-0.093 0.041-0.131s0.068-0.069 0.119-0.091c0.052-0.022 0.11-0.032 0.175-0.032s0.123 0.012 0.174 0.036c0.051 0.023 0.090 0.056 0.118 0.099s0.043 0.092 0.043 0.146h-0.188c0-0.042-0.013-0.074-0.039-0.097s-0.063-0.035-0.111-0.035c-0.046 0-0.081 0.010-0.107 0.029s-0.038 0.045-0.038 0.076c0 0.030 0.015 0.054 0.044 0.074s0.074 0.039 0.132 0.056c0.107 0.032 0.184 0.072 0.233 0.119s0.073 0.107 0.073 0.178c0 0.079-0.030 0.141-0.089 0.186s-0.14 0.067-0.241 0.067c-0.070 0-0.134-0.013-0.191-0.038s-0.101-0.061-0.132-0.106c-0.030-0.045-0.045-0.096-0.045-0.155h0.188c0 0.1 0.060 0.151 0.18 0.151 0.045 0 0.079-0.009 0.104-0.027s0.037-0.044 0.037-0.076zM8.001 6.831h-0.279v0.758h-0.188v-0.758h-0.275v-0.152h0.741v0.152zM8.656 7.195h-0.36v0.244h0.422v0.151h-0.61v-0.91h0.609v0.152h-0.421v0.217h0.36v0.147zM9.166 7.256h-0.149v0.333h-0.188v-0.91h0.338c0.107 0 0.19 0.024 0.249 0.072s0.088 0.116 0.088 0.203c0 0.062-0.014 0.114-0.041 0.156s-0.067 0.074-0.122 0.099l0.197 0.372v0.009h-0.201l-0.171-0.333zM9.016 7.104h0.151c0.047 0 0.084-0.012 0.109-0.036s0.039-0.057 0.039-0.099c0-0.043-0.012-0.077-0.037-0.101s-0.061-0.037-0.112-0.037h-0.151v0.273zM10.153 7.268v0.321h-0.188v-0.91h0.355c0.068 0 0.128 0.013 0.18 0.037s0.092 0.061 0.12 0.107c0.028 0.046 0.042 0.098 0.042 0.157 0 0.089-0.031 0.16-0.092 0.211s-0.145 0.077-0.253 0.077h-0.164zM10.153 7.117h0.168c0.050 0 0.087-0.012 0.113-0.035s0.039-0.057 0.039-0.1c0-0.045-0.013-0.081-0.039-0.108s-0.063-0.042-0.109-0.043h-0.172v0.286zM11.339 7.195h-0.36v0.244h0.422v0.151h-0.61v-0.91h0.609v0.152h-0.421v0.217h0.36v0.147zM12.209 6.831h-0.279v0.758h-0.188v-0.758h-0.275v-0.152h0.741v0.152zM12.864 7.195h-0.36v0.244h0.422v0.151h-0.61v-0.91h0.609v0.152h-0.421v0.217h0.36v0.147zM13.373 7.256h-0.149v0.333h-0.188v-0.91h0.338c0.107 0 0.19 0.024 0.249 0.072s0.088 0.116 0.088 0.203c0 0.062-0.014 0.114-0.041 0.156s-0.067 0.074-0.122 0.099l0.197 0.372v0.009h-0.201l-0.171-0.333zM13.224 7.104h0.151c0.047 0 0.084-0.012 0.109-0.036s0.039-0.057 0.039-0.099c0-0.043-0.012-0.077-0.037-0.101s-0.061-0.037-0.112-0.037h-0.151v0.273zM14.326 7.35c0-0.035-0.012-0.063-0.037-0.081s-0.070-0.039-0.135-0.060c-0.065-0.021-0.116-0.042-0.154-0.063-0.103-0.056-0.155-0.131-0.155-0.226 0-0.049 0.014-0.093 0.041-0.131s0.068-0.069 0.119-0.091c0.052-0.022 0.11-0.032 0.175-0.032s0.123 0.012 0.174 0.036c0.051 0.023 0.090 0.056 0.118 0.099s0.043 0.092 0.043 0.146h-0.188c0-0.042-0.013-0.074-0.039-0.097s-0.063-0.035-0.111-0.035c-0.046 0-0.081 0.010-0.107 0.029s-0.038 0.045-0.038 0.076c0 0.030 0.015 0.054 0.044 0.074s0.074 0.039 0.132 0.056c0.107 0.032 0.184 0.072 0.233 0.119s0.073 0.107 0.073 0.178c0 0.079-0.030 0.141-0.089 0.186s-0.14 0.067-0.241 0.067c-0.070 0-0.134-0.013-0.191-0.038s-0.101-0.061-0.132-0.106c-0.030-0.045-0.045-0.096-0.045-0.155h0.188c0 0.1 0.060 0.151 0.18 0.151 0.045 0 0.079-0.009 0.104-0.027s0.037-0.044 0.037-0.076z"></path>
</symbol>
<symbol id="icon-client5" viewBox="0 0 40 32">
<path fill="#afb1b8" style="fill: var(--color1, #afb1b8)" d="M3.055 26.742c0.156 0.194 0.24 0.438 0.236 0.688 0.008 0.163-0.021 0.326-0.084 0.476s-0.159 0.285-0.281 0.393c-0.304 0.231-0.681 0.343-1.061 0.317h-1.865v-4.361h1.827c0.361-0.024 0.718 0.078 1.012 0.29 0.118 0.099 0.211 0.224 0.273 0.366s0.089 0.296 0.081 0.45c0.011 0.241-0.065 0.477-0.212 0.667-0.142 0.173-0.338 0.293-0.556 0.341 0.247 0.045 0.471 0.177 0.63 0.373zM0.868 26.084h0.781c0.177 0.013 0.354-0.038 0.496-0.145 0.059-0.053 0.104-0.119 0.133-0.193s0.041-0.154 0.034-0.233c0.006-0.079-0.006-0.158-0.035-0.232s-0.073-0.14-0.13-0.194c-0.147-0.11-0.329-0.162-0.511-0.147h-0.768v1.144zM2.222 27.756c0.063-0.055 0.112-0.123 0.144-0.2s0.046-0.16 0.041-0.243c0.005-0.084-0.010-0.168-0.042-0.246s-0.083-0.147-0.146-0.202c-0.153-0.114-0.341-0.17-0.53-0.158h-0.819v1.199h0.83c0.187 0.011 0.372-0.043 0.524-0.151zM6.79 28.617l-1.016-1.704h-0.382v1.704h-0.874v-4.361h1.655c0.417-0.029 0.83 0.103 1.152 0.371 0.231 0.237 0.371 0.549 0.393 0.879s-0.073 0.659-0.27 0.925c-0.204 0.235-0.483 0.391-0.789 0.443l1.082 1.743h-0.951zM5.391 26.318h0.715c0.497 0 0.745-0.22 0.745-0.66 0.005-0.090-0.008-0.18-0.040-0.264s-0.080-0.161-0.143-0.226c-0.157-0.131-0.359-0.195-0.562-0.177h-0.724l0.008 1.327zM11.568 27.739h-1.742l-0.308 0.878h-0.917l1.6-4.312h0.991l1.593 4.312h-0.917l-0.301-0.878zM11.335 27.079l-0.637-1.841-0.637 1.841h1.273zM17.55 28.617h-0.868l-1.946-2.965v2.965h-0.866v-4.361h0.866l1.946 2.983v-2.983h0.868v4.361zM22.502 27.573c-0.179 0.329-0.453 0.597-0.785 0.769-0.378 0.192-0.797 0.286-1.22 0.275h-1.545v-4.361h1.545c0.422-0.011 0.841 0.081 1.22 0.268 0.332 0.168 0.606 0.433 0.785 0.761 0.179 0.355 0.272 0.747 0.272 1.144s-0.093 0.789-0.272 1.144zM21.509 27.469c0.248-0.29 0.384-0.659 0.384-1.041s-0.136-0.751-0.384-1.041c-0.299-0.262-0.69-0.396-1.086-0.371h-0.603v2.823h0.603c0.397 0.025 0.787-0.108 1.086-0.371zM12.111 0s11.201 4.246 10.963 10.39v10.392s-11.193-4.248-10.959-10.392l-0.004-10.39zM33.054 18.349c2.115-1.462 4.562-2.367 7.117-2.633v-3.253c-2.943 1.139-5.44 3.204-7.117 5.886z"></path>
<path fill="#afb1b8" style="fill: var(--color1, #afb1b8)" d="M31.783 19.329c1.731-3.5 4.733-6.202 8.388-7.548v-9.374s-15.952 6.048-15.614 14.797v14.795s0.711-0.271 1.829-0.778c0-0.473 0-0.95 0.051-1.429 0.33-4.062 2.253-7.826 5.347-10.464z"></path>
<path fill="#afb1b8" style="fill: var(--color1, #afb1b8)" d="M30.266 24.825c0.084-1.026 0.271-2.041 0.558-3.029-1.926 2.279-3.093 5.106-3.335 8.085-0.023 0.281-0.036 0.562-0.042 0.852 0.906-0.437 1.961-0.982 3.068-1.623-0.283-1.409-0.366-2.851-0.248-4.284zM30.9 24.878c-0.106 1.296-0.040 2.601 0.197 3.879 4.358-2.618 9.255-6.664 9.067-11.553v-0.426c-3.114 0.35-6.027 1.716-8.292 3.89-0.53 1.347-0.858 2.766-0.972 4.21z"></path>
</symbol>
<symbol id="icon-client6" viewBox="0 0 63 32">
<path fill="#afb1b8" style="fill: var(--color1, #afb1b8)" d="M31.815 14.712c-0.297-0.42-0.439-0.917-0.406-1.417v-2.055c0-0.63 0.134-1.109 0.403-1.436s0.731-0.491 1.386-0.489c0.615 0 1.052 0.139 1.31 0.418 0.282 0.356 0.419 0.791 0.387 1.229v0.483h-1.101v-0.489c0.004-0.16-0.007-0.32-0.032-0.479-0.016-0.108-0.071-0.209-0.157-0.284-0.113-0.082-0.255-0.121-0.399-0.111-0.151-0.010-0.3 0.031-0.419 0.117-0.096 0.084-0.16 0.194-0.182 0.314-0.032 0.168-0.046 0.338-0.043 0.508v2.494c-0.017 0.241 0.031 0.481 0.141 0.7 0.055 0.074 0.131 0.133 0.22 0.17s0.187 0.050 0.284 0.039c0.141 0.011 0.281-0.030 0.39-0.113 0.090-0.082 0.147-0.188 0.164-0.303 0.026-0.165 0.037-0.332 0.034-0.5v-0.506h1.101v0.462c0.031 0.457-0.103 0.911-0.381 1.292-0.253 0.305-0.684 0.458-1.317 0.458s-1.112-0.163-1.383-0.502zM36.399 14.733c-0.278-0.32-0.417-0.786-0.417-1.403v-2.162c0-0.61 0.139-1.072 0.417-1.386s0.743-0.47 1.395-0.468c0.647 0 1.11 0.156 1.388 0.468 0.278 0.314 0.419 0.776 0.419 1.386v2.162c0 0.61-0.141 1.079-0.424 1.401s-0.743 0.483-1.383 0.483c-0.64 0-1.114-0.163-1.395-0.481zM38.306 14.214c0.1-0.2 0.145-0.42 0.132-0.64v-2.647c0.013-0.216-0.032-0.431-0.13-0.627-0.056-0.076-0.134-0.135-0.225-0.172s-0.192-0.050-0.29-0.037c-0.099-0.013-0.2 0-0.291 0.037s-0.17 0.096-0.226 0.172c-0.1 0.196-0.146 0.411-0.132 0.627v2.659c-0.014 0.22 0.032 0.44 0.132 0.64 0.064 0.067 0.143 0.121 0.232 0.159s0.185 0.056 0.283 0.056 0.194-0.019 0.283-0.056c0.089-0.037 0.168-0.091 0.232-0.159v-0.012zM40.925 9.377h1.185l0.891 3.988 0.912-3.988h1.153l0.116 5.756h-0.852l-0.091-4.001-0.88 4.001h-0.684l-0.912-4.015-0.084 4.015h-0.861l0.107-5.756zM46.511 9.377h1.846c1.064 0 1.595 0.545 1.595 1.634 0 1.044-0.56 1.565-1.68 1.564h-0.629v2.558h-1.139l0.007-5.756zM48.088 11.837c0.113 0.013 0.227 0.004 0.335-0.028s0.208-0.084 0.292-0.154c0.131-0.194 0.188-0.423 0.164-0.65 0.006-0.176-0.012-0.351-0.055-0.523-0.016-0.057-0.045-0.111-0.084-0.158s-0.088-0.086-0.144-0.116c-0.158-0.070-0.333-0.101-0.508-0.092h-0.442v1.72h0.442zM51.595 9.377h1.224l1.256 5.756h-1.062l-0.248-1.327h-1.092l-0.255 1.327h-1.078l1.256-5.756zM52.641 13.14l-0.426-2.416-0.426 2.416h0.852zM55.089 9.377h0.798l1.527 3.284v-3.284h0.946v5.756h-0.759l-1.536-3.428v3.428h-0.978l0.002-5.756zM60.575 12.939l-1.269-3.553h1.069l0.775 2.283 0.727-2.283h1.046l-1.253 3.553v2.195h-1.094v-2.195zM33.575 17.651v0.301h-0.93v2.339h-0.39v-2.339h-0.934v-0.301h2.254zM36.49 20.291h-0.301c-0.031 0.002-0.061-0.007-0.084-0.025-0.023-0.015-0.040-0.036-0.050-0.061l-0.269-0.627h-1.29l-0.269 0.627c-0.008 0.026-0.022 0.050-0.041 0.071-0.024 0.017-0.054 0.026-0.084 0.025h-0.301l1.14-2.64h0.397l1.153 2.63zM34.603 19.311h1.076l-0.456-1.074c-0.034-0.081-0.062-0.164-0.084-0.249-0.016 0.050-0.030 0.098-0.043 0.14l-0.041 0.111-0.451 1.072zM38.454 20.032c0.071 0.003 0.143 0.003 0.214 0 0.062-0.006 0.123-0.016 0.182-0.031 0.056-0.012 0.111-0.029 0.164-0.048 0.050-0.019 0.1-0.042 0.153-0.065v-0.594h-0.456c-0.011 0.001-0.023-0.001-0.033-0.005s-0.020-0.009-0.028-0.016c-0.008-0.006-0.013-0.013-0.017-0.022s-0.006-0.017-0.005-0.026v-0.203h0.884v1.012c-0.072 0.047-0.148 0.089-0.228 0.125-0.081 0.037-0.166 0.067-0.253 0.090-0.093 0.025-0.188 0.043-0.285 0.054-0.111 0.011-0.222 0.017-0.333 0.017-0.197 0.002-0.392-0.032-0.574-0.098-0.171-0.063-0.326-0.157-0.456-0.276-0.127-0.12-0.227-0.262-0.294-0.418-0.072-0.175-0.107-0.361-0.105-0.548-0.002-0.188 0.032-0.375 0.103-0.552 0.066-0.156 0.166-0.299 0.294-0.418 0.13-0.119 0.285-0.212 0.456-0.274 0.195-0.067 0.402-0.101 0.611-0.098 0.106-0 0.212 0.008 0.317 0.023 0.093 0.014 0.184 0.036 0.271 0.067 0.080 0.027 0.156 0.063 0.228 0.105 0.070 0.041 0.136 0.087 0.198 0.138l-0.109 0.163c-0.009 0.015-0.021 0.027-0.037 0.036s-0.034 0.014-0.052 0.014c-0.025-0.001-0.050-0.008-0.071-0.021-0.034-0.017-0.071-0.038-0.112-0.063-0.048-0.028-0.1-0.052-0.153-0.071-0.068-0.025-0.138-0.044-0.21-0.059-0.095-0.016-0.192-0.024-0.289-0.023-0.15-0.002-0.3 0.023-0.44 0.073-0.127 0.047-0.241 0.118-0.335 0.209-0.094 0.095-0.167 0.207-0.212 0.328-0.102 0.286-0.102 0.594 0 0.88 0.050 0.124 0.128 0.237 0.228 0.332 0.093 0.091 0.207 0.162 0.333 0.209 0.145 0.046 0.299 0.063 0.451 0.052zM42.087 19.99h1.244v0.301h-1.625v-2.64h0.39l-0.009 2.339zM44.626 20.291h-0.39v-2.64h0.39v2.64zM46.076 17.663c0.023 0.012 0.043 0.029 0.059 0.048l1.666 1.99c-0.002-0.031-0.002-0.063 0-0.094v-1.967h0.34v2.651h-0.196c-0.029 0.002-0.058-0.003-0.084-0.015-0.024-0.013-0.044-0.030-0.062-0.050l-1.664-1.988v2.053h-0.326v-2.64h0.203c0.022 0 0.044 0.004 0.064 0.012zM51.010 17.651v0.291h-1.381v0.872h1.119v0.28h-1.119v0.901h1.381v0.291h-1.782v-2.634h1.782zM10.171 1.346l17.305 4.507v15.793l-17.305-4.505v-15.795zM9.061 0v17.908l19.522 5.086v-17.906l-19.522-5.088z"></path>
<path fill="#afb1b8" style="fill: var(--color1, #afb1b8)" d="M19.525 31.307l-19.525-5.090v-17.906l19.525 5.088v17.908z"></path>
<path fill="#afb1b8" style="fill: var(--color1, #afb1b8)" d="M9.385 1.143l17.079 4.45-7.263 6.664-17.081-4.452 7.266-6.662zM9.061 0l-9.061 8.311 19.525 5.088 9.059-8.311-19.522-5.088zM20.623 30.299l7.961-7.303-7.961-2.076v9.379z"></path>
</symbol>
<symbol id="icon-envelope" viewBox="0 0 43 32">
<path fill="#757575" style="fill: var(--color2, #757575)" d="M38.667 0h-34.667c-2.206 0-4 1.675-4 3.734v22.404c0 2.059 1.794 3.734 4 3.734h34.667c2.206 0 4-1.675 4-3.734v-22.404c0-2.059-1.794-3.734-4-3.734zM38.667 2.489c0.181 0 0.353 0.035 0.511 0.096l-17.844 14.437-17.844-14.437c0.158-0.061 0.33-0.096 0.511-0.096h34.667zM38.667 27.383h-34.667c-0.736 0-1.333-0.558-1.333-1.245v-20.922l17.793 14.395c0.251 0.203 0.563 0.304 0.874 0.304s0.622-0.101 0.874-0.304l17.793-14.395v20.922c0 0.687-0.598 1.245-1.333 1.245z"></path>
</symbol>
<symbol id="icon-facebook" viewBox="0 0 32 32">
<path fill="#afb1b8" style="fill: var(--color1, #afb1b8)" d="M21.328 5.312h2.923v-5.088c-1.232-0.143-2.66-0.224-4.107-0.224-0.052 0-0.104 0-0.157 0l0.008-0c-4.213 0-7.099 2.65-7.099 7.52v4.48h-4.646v5.688h4.646v14.312h5.698v-14.31h4.461l0.707-5.688h-5.168v-3.922c0-1.643 0.443-2.768 2.734-2.768z"></path>
</symbol>
<symbol id="icon-header" viewBox="0 0 85 32">
<path d="M0 0h85.333v32h-85.333z"></path>
</symbol>
<symbol id="icon-icon-send" viewBox="0 0 32 32">
<path fill="#fff" style="fill: var(--color3, #fff)" d="M32 0l-32 18 10.227 3.787 15.773-14.787-11.997 16.187 0.009 0.003-0.012-0.003v8.813l5.735-6.691 7.267 2.691 4.999-28z"></path>
</symbol>
<symbol id="icon-instagram" viewBox="0 0 32 32">
<path fill="#afb1b8" style="fill: var(--color1, #afb1b8)" d="M31.969 9.408c-0.075-1.7-0.35-2.869-0.744-3.882-0.406-1.075-1.032-2.038-1.851-2.838-0.8-0.813-1.769-1.444-2.832-1.844-1.019-0.394-2.182-0.669-3.882-0.744-1.713-0.081-2.257-0.1-6.601-0.1s-4.888 0.019-6.595 0.094c-1.7 0.075-2.869 0.35-3.882 0.744-1.075 0.406-2.038 1.031-2.838 1.85-0.813 0.8-1.444 1.769-1.844 2.832-0.394 1.019-0.669 2.182-0.744 3.882-0.081 1.713-0.1 2.257-0.1 6.601s0.019 4.888 0.094 6.595c0.075 1.7 0.35 2.869 0.744 3.882 0.406 1.075 1.038 2.038 1.85 2.838 0.8 0.813 1.769 1.444 2.832 1.844 1.019 0.394 2.182 0.669 3.882 0.744 1.706 0.075 2.25 0.094 6.595 0.094s4.888-0.019 6.595-0.094c1.7-0.075 2.869-0.35 3.882-0.744 2.151-0.832 3.851-2.532 4.682-4.682 0.394-1.019 0.669-2.182 0.744-3.882 0.075-1.707 0.094-2.251 0.094-6.595s-0.006-4.888-0.081-6.595zM29.087 22.473c-0.069 1.563-0.331 2.407-0.55 2.969-0.538 1.394-1.644 2.5-3.038 3.038-0.563 0.219-1.413 0.481-2.969 0.55-1.688 0.075-2.194 0.094-6.464 0.094s-4.782-0.019-6.464-0.094c-1.563-0.069-2.407-0.331-2.969-0.55-0.694-0.256-1.325-0.663-1.838-1.194-0.531-0.519-0.938-1.144-1.194-1.838-0.219-0.563-0.481-1.413-0.55-2.969-0.075-1.688-0.094-2.194-0.094-6.464s0.019-4.782 0.094-6.464c0.069-1.563 0.331-2.407 0.55-2.969 0.256-0.694 0.663-1.325 1.2-1.838 0.519-0.531 1.144-0.938 1.838-1.194 0.563-0.219 1.413-0.481 2.969-0.55 1.688-0.075 2.194-0.094 6.464-0.094 4.276 0 4.782 0.019 6.464 0.094 1.563 0.069 2.407 0.331 2.969 0.55 0.694 0.256 1.325 0.662 1.838 1.194 0.531 0.519 0.938 1.144 1.194 1.838 0.219 0.563 0.481 1.413 0.55 2.969 0.075 1.688 0.094 2.194 0.094 6.464s-0.019 4.77-0.094 6.458z"></path>
<path fill="#afb1b8" style="fill: var(--color1, #afb1b8)" d="M16.059 7.783c-4.538 0-8.22 3.682-8.22 8.22s3.682 8.22 8.22 8.22c4.539 0 8.22-3.682 8.22-8.22s-3.682-8.22-8.22-8.22zM16.059 21.335c-2.944 0-5.332-2.388-5.332-5.332s2.388-5.332 5.332-5.332c2.944 0 5.332 2.388 5.332 5.332s-2.388 5.332-5.332 5.332zM26.524 7.458c0 1.060-0.859 1.919-1.919 1.919s-1.919-0.859-1.919-1.919c0-1.060 0.859-1.919 1.919-1.919s1.919 0.859 1.919 1.919z"></path>
</symbol>
<symbol id="icon-linkedin" viewBox="0 0 32 32">
<path fill="#afb1b8" style="fill: var(--color1, #afb1b8)" d="M31.992 32v-0.001h0.008v-11.736c0-5.741-1.236-10.164-7.948-10.164-3.227 0-5.392 1.771-6.276 3.449h-0.093v-2.913h-6.364v21.364h6.627v-10.579c0-2.785 0.528-5.479 3.977-5.479 3.399 0 3.449 3.179 3.449 5.657v10.401h6.62zM0.528 10.636h6.635v21.364h-6.635v-21.364zM3.843 0c-2.121 0-3.843 1.721-3.843 3.843s1.721 3.879 3.843 3.879c2.121 0 3.843-1.757 3.843-3.879-0.001-2.121-1.723-3.843-3.843-3.843z"></path>
</symbol>
<symbol id="icon-smartphone" viewBox="0 0 21 32">
<path fill="#757575" style="fill: var(--color2, #757575)" d="M18.133 0h-14.933c-1.765 0-3.2 1.298-3.2 2.894v25.083c0 1.596 1.435 2.894 3.2 2.894h14.933c1.764 0 3.2-1.298 3.2-2.894v-25.083c0-1.596-1.436-2.894-3.2-2.894zM3.2 1.929h14.933c0.589 0 1.067 0.432 1.067 0.965v20.259h-17.067v-20.259c0-0.532 0.478-0.965 1.067-0.965zM18.133 28.941h-14.933c-0.589 0-1.067-0.432-1.067-0.965v-2.894h17.067v2.894c0 0.532-0.478 0.965-1.067 0.965z"></path>
<path fill="#757575" style="fill: var(--color2, #757575)" d="M5.021 26.33c0.417 0.377 0.417 0.988 0 1.364s-1.092 0.377-1.508 0c-0.417-0.377-0.417-0.988 0-1.364s1.092-0.377 1.508 0z"></path>
</symbol>
<symbol id="icon-twitter" viewBox="0 0 32 32">
<path fill="#afb1b8" style="fill: var(--color1, #afb1b8)" d="M32 6.078c-1.19 0.522-2.458 0.868-3.78 1.036 1.36-0.812 2.398-2.088 2.886-3.626-1.268 0.756-2.668 1.29-4.16 1.588-1.204-1.282-2.92-2.076-4.792-2.076-3.632 0-6.556 2.948-6.556 6.562 0 0.52 0.044 1.020 0.152 1.496-5.454-0.266-10.28-2.88-13.522-6.862-0.566 0.982-0.898 2.106-0.898 3.316 0 2.272 1.17 4.286 2.914 5.452-1.054-0.020-2.088-0.326-2.964-0.808v0.072c0 3.188 2.274 5.836 5.256 6.446-0.534 0.146-1.116 0.216-1.72 0.216-0.42 0-0.844-0.024-1.242-0.112 0.85 2.598 3.262 4.508 6.13 4.57-2.214 1.744-5.044 2.798-8.12 2.798-0.005 0-0.010 0-0.015 0h0.001c-0.538 0-1.054-0.024-1.57-0.090 2.906 1.874 6.35 2.944 10.064 2.944 12.072 0 18.672-10 18.672-18.668 0-0.29-0.010-0.57-0.024-0.848 1.302-0.924 2.396-2.078 3.288-3.406z"></path>
</symbol>
</defs>
</svg>
